<svg width="12" height="12" viewBox="0 0 12 12" fill="none" xmlns="http://www.w3.org/2000/svg">
<path d="M11.2128 4.56563C11.1659 4.41796 11.0754 4.28792 10.9533 4.19256C10.8312 4.09721 10.6831 4.04098 10.5284 4.03125L7.74407 3.83906L6.71282 1.2375C6.65651 1.09425 6.5585 0.971205 6.43147 0.884289C6.30444 0.797374 6.15424 0.750592 6.00032 0.75C5.8464 0.750592 5.69621 0.797374 5.56918 0.884289C5.44215 0.971205 5.34413 1.09425 5.28782 1.2375L4.23782 3.85312L1.4722 4.03125C1.31775 4.04161 1.16996 4.09807 1.04795 4.19334C0.925938 4.28861 0.835322 4.4183 0.787822 4.56563C0.739044 4.71521 0.736194 4.87598 0.77964 5.02721C0.823085 5.17843 0.910834 5.31317 1.03157 5.41406L3.1597 7.21406L2.52688 9.70312C2.4831 9.87151 2.49098 10.0492 2.5495 10.213C2.60801 10.3769 2.71446 10.5193 2.85501 10.6219C2.99143 10.7198 3.15396 10.7748 3.32181 10.7798C3.48966 10.7848 3.65518 10.7396 3.7972 10.65L5.99563 9.25781H6.00501L8.3722 10.7531C8.49363 10.832 8.63519 10.8743 8.78001 10.875C8.89825 10.8741 9.01471 10.846 9.12042 10.7931C9.22614 10.7401 9.3183 10.6636 9.38983 10.5694C9.46135 10.4753 9.51033 10.366 9.53301 10.2499C9.55569 10.1339 9.55145 10.0142 9.52064 9.9L8.85032 7.17656L10.9691 5.41406C11.0898 5.31317 11.1776 5.17843 11.221 5.02721C11.2645 4.87598 11.2616 4.71521 11.2128 4.56563Z" fill="#FEC84B"/>
</svg>
