<svg width="50" height="50" viewBox="0 0 50 50" fill="none" xmlns="http://www.w3.org/2000/svg">
<path d="M49.1378 41.3792H0.862108C0.386034 41.3792 0 40.9932 0 40.5171V9.48271C0 9.00664 0.386034 8.62061 0.862108 8.62061H49.1379C49.614 8.62061 50 9.00664 50 9.48271V40.5171C49.9999 40.9933 49.6139 41.3792 49.1378 41.3792Z" fill="#F5F5F5"/>
<path d="M49.9999 11.1406H0V9.48271C0 9.00664 0.386034 8.62061 0.862108 8.62061H49.1379C49.614 8.62061 50 9.00664 50 9.48271L49.9999 11.1406Z" fill="#FF4B55"/>
<path d="M49.9999 18.7002H0V21.2201H49.9999V18.7002Z" fill="#FF4B55"/>
<path d="M49.9999 13.6602H0V16.1801H49.9999V13.6602Z" fill="#FF4B55"/>
<path d="M49.9999 26.2598H0.862108C0.386034 26.2598 0 25.8737 0 25.3977V23.7397H49.9999V26.2598Z" fill="#FF4B55"/>
<path d="M49.9999 33.8203H0V36.3402H49.9999V33.8203Z" fill="#FF4B55"/>
<path d="M49.1378 41.3793H0.862108C0.386034 41.3793 0 40.9933 0 40.5172V38.8594H49.9999V40.5173C49.9999 40.9934 49.6139 41.3793 49.1378 41.3793Z" fill="#FF4B55"/>
<path d="M49.9999 28.78H0V31.2999H49.9999V28.78Z" fill="#FF4B55"/>
<path d="M22.4137 8.62085H0.862108C0.386034 8.62085 0 9.00679 0 9.48286V25.3979C0 25.8739 0.386034 26.26 0.862108 26.26H22.4138C22.8899 26.26 23.2759 25.8739 23.2759 25.3979V9.48286C23.2758 9.00679 22.8898 8.62085 22.4137 8.62085Z" fill="#41479B"/>
<path d="M2.42152 10.5995L2.61234 11.1718L3.21556 11.1764C3.29368 11.1771 3.32601 11.2767 3.26321 11.3231L2.77796 11.6815L2.95999 12.2566C2.98363 12.331 2.89876 12.3927 2.83519 12.3472L2.34447 11.9965L1.85375 12.3473C1.79017 12.3927 1.7055 12.3311 1.72894 12.2566L1.91097 11.6816L1.42572 11.3232C1.36293 11.2767 1.39525 11.1772 1.47337 11.1765L2.0766 11.1719L2.26742 10.5996C2.29203 10.5254 2.39671 10.5254 2.42152 10.5995Z" fill="#F5F5F5"/>
<path d="M2.42112 13.5931L2.61194 14.1654L3.21516 14.17C3.29329 14.1706 3.32561 14.2703 3.26282 14.3166L2.77757 14.675L2.9596 15.2501C2.98323 15.3245 2.89837 15.3863 2.83479 15.3408L2.34407 14.9901L1.85335 15.3409C1.78977 15.3863 1.70511 15.3246 1.72854 15.2502L1.91057 14.6751L1.42532 14.3167C1.36253 14.2703 1.39485 14.1707 1.47298 14.1701L2.0762 14.1655L2.26702 13.5932C2.29163 13.5191 2.39632 13.5191 2.42112 13.5931Z" fill="#F5F5F5"/>
<path d="M2.42112 16.5865L2.61194 17.1588L3.21516 17.1634C3.29329 17.164 3.32561 17.2637 3.26282 17.31L2.77757 17.6684L2.9596 18.2435C2.98323 18.318 2.89837 18.3797 2.83479 18.3342L2.34407 17.9835L1.85335 18.3343C1.78977 18.3797 1.70511 18.318 1.72854 18.2436L1.91057 17.6685L1.42532 17.3101C1.36253 17.2637 1.39485 17.1641 1.47298 17.1635L2.0762 17.1589L2.26702 16.5866C2.29163 16.5125 2.39632 16.5125 2.42112 16.5865Z" fill="#F5F5F5"/>
<path d="M2.42112 19.5802L2.61194 20.1525L3.21516 20.1571C3.29329 20.1578 3.32561 20.2574 3.26282 20.3038L2.77757 20.6622L2.9596 21.2373C2.98323 21.3117 2.89837 21.3734 2.83479 21.3279L2.34407 20.9772L1.85335 21.328C1.78977 21.3734 1.70511 21.3118 1.72854 21.2374L1.91057 20.6623L1.42532 20.3039C1.36253 20.2574 1.39485 20.1579 1.47298 20.1572L2.0762 20.1526L2.26702 19.5803C2.29163 19.5061 2.39632 19.5061 2.42112 19.5802Z" fill="#F5F5F5"/>
<path d="M2.42112 22.5737L2.61194 23.146L3.21516 23.1506C3.29329 23.1513 3.32561 23.2509 3.26282 23.2973L2.77757 23.6556L2.9596 24.2307C2.98323 24.3052 2.89837 24.3669 2.83479 24.3214L2.34407 23.9707L1.85335 24.3215C1.78977 24.3669 1.70511 24.3053 1.72854 24.2308L1.91057 23.6557L1.42532 23.2973C1.36253 23.2509 1.39485 23.1514 1.47298 23.1507L2.0762 23.1461L2.26702 22.5738C2.29163 22.4995 2.39632 22.4995 2.42112 22.5737Z" fill="#F5F5F5"/>
<path d="M4.74458 12.0672L4.9354 12.6395L5.53862 12.6441C5.61674 12.6448 5.64907 12.7444 5.58627 12.7908L5.10102 13.1492L5.28305 13.7243C5.30668 13.7987 5.22182 13.8604 5.15825 13.8149L4.66753 13.4641L4.1768 13.8149C4.11323 13.8603 4.02856 13.7987 4.052 13.7243L4.23403 13.1492L3.74878 12.7908C3.68598 12.7443 3.71831 12.6448 3.79643 12.6441L4.39965 12.6395L4.59048 12.0672C4.61499 11.9932 4.71987 11.9932 4.74458 12.0672Z" fill="#F5F5F5"/>
<path d="M4.74458 15.0607L4.9354 15.633L5.53862 15.6376C5.61674 15.6383 5.64907 15.7379 5.58627 15.7842L5.10102 16.1426L5.28305 16.7177C5.30668 16.7922 5.22182 16.8539 5.15825 16.8084L4.66753 16.4576L4.1768 16.8084C4.11323 16.8538 4.02856 16.7923 4.052 16.7177L4.23403 16.1426L3.74878 15.7842C3.68598 15.7378 3.71831 15.6383 3.79643 15.6376L4.39965 15.633L4.59048 15.0607C4.61499 14.9866 4.71987 14.9866 4.74458 15.0607Z" fill="#F5F5F5"/>
<path d="M4.74458 18.0544L4.9354 18.6266L5.53862 18.6312C5.61674 18.6319 5.64907 18.7315 5.58627 18.7779L5.10102 19.1363L5.28305 19.7114C5.30668 19.7858 5.22182 19.8475 5.15825 19.802L4.66753 19.4512L4.1768 19.802C4.11323 19.8474 4.02856 19.7858 4.052 19.7114L4.23403 19.1363L3.74878 18.7779C3.68598 18.7314 3.71831 18.6319 3.79643 18.6312L4.39965 18.6266L4.59048 18.0544C4.61499 17.9802 4.71987 17.9802 4.74458 18.0544Z" fill="#F5F5F5"/>
<path d="M4.74458 21.0479L4.9354 21.6202L5.53862 21.6248C5.61674 21.6255 5.64907 21.7251 5.58627 21.7715L5.10102 22.1299L5.28305 22.705C5.30668 22.7794 5.22182 22.8411 5.15825 22.7956L4.66753 22.4448L4.1768 22.7956C4.11323 22.841 4.02856 22.7794 4.052 22.705L4.23403 22.1299L3.74878 21.7715C3.68598 21.725 3.71831 21.6255 3.79643 21.6248L4.39965 21.6202L4.59048 21.0479C4.61499 20.9739 4.71987 20.9739 4.74458 21.0479Z" fill="#F5F5F5"/>
<path d="M7.06818 10.5995L7.25901 11.1718L7.86223 11.1764C7.94035 11.1771 7.97268 11.2767 7.90988 11.3231L7.42463 11.6815L7.60666 12.2566C7.63029 12.331 7.54543 12.3927 7.48186 12.3472L6.99113 11.9964L6.50041 12.3472C6.43684 12.3926 6.35217 12.331 6.37561 12.2566L6.55764 11.6815L6.07239 11.3231C6.00959 11.2766 6.04192 11.1771 6.12004 11.1764L6.72326 11.1718L6.91408 10.5995C6.93869 10.5254 7.04348 10.5254 7.06818 10.5995Z" fill="#F5F5F5"/>
<path d="M7.06818 13.5931L7.25901 14.1654L7.86223 14.17C7.94035 14.1707 7.97268 14.2703 7.90988 14.3166L7.42463 14.675L7.60666 15.2501C7.63029 15.3246 7.54543 15.3863 7.48186 15.3408L6.99113 14.99L6.50041 15.3408C6.43684 15.3862 6.35217 15.3246 6.37561 15.2501L6.55764 14.675L6.07239 14.3166C6.00959 14.2702 6.04192 14.1707 6.12004 14.17L6.72326 14.1654L6.91408 13.5931C6.93869 13.5191 7.04348 13.5191 7.06818 13.5931Z" fill="#F5F5F5"/>
<path d="M7.06818 16.5865L7.25901 17.1588L7.86223 17.1634C7.94035 17.1641 7.97268 17.2637 7.90988 17.3101L7.42463 17.6685L7.60666 18.2436C7.63029 18.318 7.54543 18.3797 7.48186 18.3342L6.99113 17.9834L6.50041 18.3342C6.43684 18.3796 6.35217 18.318 6.37561 18.2436L6.55764 17.6685L6.07239 17.3101C6.00959 17.2636 6.04192 17.1641 6.12004 17.1634L6.72326 17.1588L6.91408 16.5865C6.93869 16.5125 7.04348 16.5125 7.06818 16.5865Z" fill="#F5F5F5"/>
<path d="M7.06818 19.5802L7.25901 20.1525L7.86223 20.1571C7.94035 20.1578 7.97268 20.2574 7.90988 20.3038L7.42463 20.6622L7.60666 21.2373C7.63029 21.3117 7.54543 21.3734 7.48186 21.3279L6.99113 20.9771L6.50041 21.3279C6.43684 21.3733 6.35217 21.3117 6.37561 21.2373L6.55764 20.6622L6.07239 20.3038C6.00959 20.2573 6.04192 20.1578 6.12004 20.1571L6.72326 20.1525L6.91408 19.5802C6.93869 19.5061 7.04348 19.5061 7.06818 19.5802Z" fill="#F5F5F5"/>
<path d="M7.06818 22.5737L7.25901 23.146L7.86223 23.1506C7.94035 23.1513 7.97268 23.2509 7.90988 23.2973L7.42463 23.6557L7.60666 24.2308C7.63029 24.3052 7.54543 24.3669 7.48186 24.3214L6.99113 23.9706L6.50041 24.3214C6.43684 24.3668 6.35217 24.3052 6.37561 24.2308L6.55764 23.6557L6.07239 23.2973C6.00959 23.2508 6.04192 23.1513 6.12004 23.1506L6.72326 23.146L6.91408 22.5737C6.93869 22.4995 7.04348 22.4995 7.06818 22.5737Z" fill="#F5F5F5"/>
<path d="M9.39188 12.0672L9.5827 12.6395L10.1859 12.6441C10.2641 12.6448 10.2964 12.7444 10.2336 12.7908L9.74833 13.1492L9.93036 13.7243C9.95399 13.7987 9.86913 13.8604 9.80556 13.8149L9.31483 13.4641L8.82411 13.8149C8.76054 13.8603 8.67587 13.7987 8.69931 13.7243L8.88134 13.1492L8.39609 12.7908C8.33329 12.7443 8.36562 12.6448 8.44374 12.6441L9.04696 12.6395L9.23778 12.0672C9.2623 11.9932 9.36718 11.9932 9.39188 12.0672Z" fill="#F5F5F5"/>
<path d="M9.39188 15.0607L9.5827 15.633L10.1859 15.6376C10.2641 15.6383 10.2964 15.7379 10.2336 15.7842L9.74833 16.1426L9.93036 16.7177C9.95399 16.7922 9.86913 16.8539 9.80556 16.8084L9.31483 16.4576L8.82411 16.8084C8.76054 16.8538 8.67587 16.7923 8.69931 16.7177L8.88134 16.1426L8.39609 15.7842C8.33329 15.7378 8.36562 15.6383 8.44374 15.6376L9.04696 15.633L9.23778 15.0607C9.2623 14.9866 9.36718 14.9866 9.39188 15.0607Z" fill="#F5F5F5"/>
<path d="M9.39188 18.0544L9.5827 18.6266L10.1859 18.6312C10.2641 18.6319 10.2964 18.7315 10.2336 18.7779L9.74833 19.1363L9.93036 19.7114C9.95399 19.7858 9.86913 19.8475 9.80556 19.802L9.31483 19.4512L8.82411 19.802C8.76054 19.8474 8.67587 19.7858 8.69931 19.7114L8.88134 19.1363L8.39609 18.7779C8.33329 18.7314 8.36562 18.6319 8.44374 18.6312L9.04696 18.6266L9.23778 18.0544C9.2623 17.9802 9.36718 17.9802 9.39188 18.0544Z" fill="#F5F5F5"/>
<path d="M9.39188 21.0479L9.5827 21.6202L10.1859 21.6248C10.2641 21.6255 10.2964 21.7251 10.2336 21.7715L9.74833 22.1299L9.93036 22.705C9.95399 22.7794 9.86913 22.8411 9.80556 22.7956L9.31483 22.4448L8.82411 22.7956C8.76054 22.841 8.67587 22.7794 8.69931 22.705L8.88134 22.1299L8.39609 21.7715C8.33329 21.725 8.36562 21.6255 8.44374 21.6248L9.04696 21.6202L9.23778 21.0479C9.2623 20.9739 9.36718 20.9739 9.39188 21.0479Z" fill="#F5F5F5"/>
<path d="M11.7153 10.5995L11.9062 11.1718L12.5094 11.1764C12.5875 11.1771 12.6198 11.2767 12.557 11.3231L12.0718 11.6815L12.2538 12.2566C12.2775 12.331 12.1926 12.3927 12.129 12.3472L11.6382 11.9964L11.1475 12.3472C11.0839 12.3926 10.9992 12.331 11.0227 12.2566L11.2047 11.6815L10.7195 11.3231C10.6567 11.2766 10.689 11.1771 10.7671 11.1764L11.3703 11.1718L11.5611 10.5995C11.5859 10.5254 11.6906 10.5254 11.7153 10.5995Z" fill="#F5F5F5"/>
<path d="M11.7153 13.5931L11.9062 14.1654L12.5094 14.17C12.5875 14.1707 12.6198 14.2703 12.557 14.3166L12.0718 14.675L12.2538 15.2501C12.2775 15.3246 12.1926 15.3863 12.129 15.3408L11.6382 14.99L11.1475 15.3408C11.0839 15.3862 10.9992 15.3246 11.0227 15.2501L11.2047 14.675L10.7195 14.3166C10.6567 14.2702 10.689 14.1707 10.7671 14.17L11.3703 14.1654L11.5611 13.5931C11.5859 13.5191 11.6906 13.5191 11.7153 13.5931Z" fill="#F5F5F5"/>
<path d="M11.7153 16.5865L11.9062 17.1588L12.5094 17.1634C12.5875 17.1641 12.6198 17.2637 12.557 17.3101L12.0718 17.6685L12.2538 18.2436C12.2775 18.318 12.1926 18.3797 12.129 18.3342L11.6382 17.9834L11.1475 18.3342C11.0839 18.3796 10.9992 18.318 11.0227 18.2436L11.2047 17.6685L10.7195 17.3101C10.6567 17.2636 10.689 17.1641 10.7671 17.1634L11.3703 17.1588L11.5611 16.5865C11.5859 16.5125 11.6906 16.5125 11.7153 16.5865Z" fill="#F5F5F5"/>
<path d="M11.7153 19.5802L11.9062 20.1525L12.5094 20.1571C12.5875 20.1578 12.6198 20.2574 12.557 20.3038L12.0718 20.6622L12.2538 21.2373C12.2775 21.3117 12.1926 21.3734 12.129 21.3279L11.6382 20.9771L11.1475 21.3279C11.0839 21.3733 10.9992 21.3117 11.0227 21.2373L11.2047 20.6622L10.7195 20.3038C10.6567 20.2573 10.689 20.1578 10.7671 20.1571L11.3703 20.1525L11.5611 19.5802C11.5859 19.5061 11.6906 19.5061 11.7153 19.5802Z" fill="#F5F5F5"/>
<path d="M11.7153 22.5737L11.9062 23.146L12.5094 23.1506C12.5875 23.1513 12.6198 23.2509 12.557 23.2973L12.0718 23.6557L12.2538 24.2308C12.2775 24.3052 12.1926 24.3669 12.129 24.3214L11.6382 23.9706L11.1475 24.3214C11.0839 24.3668 10.9992 24.3052 11.0227 24.2308L11.2047 23.6557L10.7195 23.2973C10.6567 23.2508 10.689 23.1513 10.7671 23.1506L11.3703 23.146L11.5611 22.5737C11.5859 22.4995 11.6906 22.4995 11.7153 22.5737Z" fill="#F5F5F5"/>
<path d="M14.039 12.0672L14.2298 12.6395L14.833 12.6441C14.9111 12.6448 14.9434 12.7444 14.8806 12.7908L14.3954 13.1492L14.5774 13.7243C14.6011 13.7987 14.5162 13.8604 14.4526 13.8149L13.9619 13.4641L13.4712 13.8149C13.4076 13.8603 13.3229 13.7987 13.3464 13.7243L13.5284 13.1492L13.0432 12.7908C12.9804 12.7443 13.0127 12.6448 13.0908 12.6441L13.694 12.6395L13.8848 12.0672C13.9096 11.9932 14.0142 11.9932 14.039 12.0672Z" fill="#F5F5F5"/>
<path d="M14.039 15.0607L14.2298 15.633L14.833 15.6376C14.9111 15.6383 14.9434 15.7379 14.8806 15.7842L14.3954 16.1426L14.5774 16.7177C14.6011 16.7922 14.5162 16.8539 14.4526 16.8084L13.9619 16.4576L13.4712 16.8084C13.4076 16.8538 13.3229 16.7923 13.3464 16.7177L13.5284 16.1426L13.0432 15.7842C12.9804 15.7378 13.0127 15.6383 13.0908 15.6376L13.694 15.633L13.8848 15.0607C13.9096 14.9866 14.0142 14.9866 14.039 15.0607Z" fill="#F5F5F5"/>
<path d="M14.039 18.0544L14.2298 18.6266L14.833 18.6312C14.9111 18.6319 14.9434 18.7315 14.8806 18.7779L14.3954 19.1363L14.5774 19.7114C14.6011 19.7858 14.5162 19.8475 14.4526 19.802L13.9619 19.4512L13.4712 19.802C13.4076 19.8474 13.3229 19.7858 13.3464 19.7114L13.5284 19.1363L13.0432 18.7779C12.9804 18.7314 13.0127 18.6319 13.0908 18.6312L13.694 18.6266L13.8848 18.0544C13.9096 17.9802 14.0142 17.9802 14.039 18.0544Z" fill="#F5F5F5"/>
<path d="M14.039 21.0479L14.2298 21.6202L14.833 21.6248C14.9111 21.6255 14.9434 21.7251 14.8806 21.7715L14.3954 22.1299L14.5774 22.705C14.6011 22.7794 14.5162 22.8411 14.4526 22.7956L13.9619 22.4448L13.4712 22.7956C13.4076 22.841 13.3229 22.7794 13.3464 22.705L13.5284 22.1299L13.0432 21.7715C12.9804 21.725 13.0127 21.6255 13.0908 21.6248L13.694 21.6202L13.8848 21.0479C13.9096 20.9739 14.0142 20.9739 14.039 21.0479Z" fill="#F5F5F5"/>
<path d="M16.3626 10.5995L16.5534 11.1718L17.1566 11.1764C17.2348 11.1771 17.2671 11.2767 17.2043 11.3231L16.719 11.6815L16.9011 12.2566C16.9247 12.331 16.8398 12.3927 16.7763 12.3472L16.2855 11.9964L15.7948 12.3472C15.7312 12.3926 15.6466 12.331 15.67 12.2566L15.852 11.6815L15.3668 11.3231C15.304 11.2766 15.3363 11.1771 15.4144 11.1764L16.0177 11.1718L16.2085 10.5995C16.233 10.5254 16.3379 10.5254 16.3626 10.5995Z" fill="#F5F5F5"/>
<path d="M16.3626 13.5931L16.5534 14.1654L17.1566 14.17C17.2348 14.1707 17.2671 14.2703 17.2043 14.3166L16.719 14.675L16.9011 15.2501C16.9247 15.3246 16.8398 15.3863 16.7763 15.3408L16.2855 14.99L15.7948 15.3408C15.7312 15.3862 15.6466 15.3246 15.67 15.2501L15.852 14.675L15.3668 14.3166C15.304 14.2702 15.3363 14.1707 15.4144 14.17L16.0177 14.1654L16.2085 13.5931C16.233 13.5191 16.3379 13.5191 16.3626 13.5931Z" fill="#F5F5F5"/>
<path d="M16.3626 16.5865L16.5534 17.1588L17.1566 17.1634C17.2348 17.1641 17.2671 17.2637 17.2043 17.3101L16.719 17.6685L16.9011 18.2436C16.9247 18.318 16.8398 18.3797 16.7763 18.3342L16.2855 17.9834L15.7948 18.3342C15.7312 18.3796 15.6466 18.318 15.67 18.2436L15.852 17.6685L15.3668 17.3101C15.304 17.2636 15.3363 17.1641 15.4144 17.1634L16.0177 17.1588L16.2085 16.5865C16.233 16.5125 16.3379 16.5125 16.3626 16.5865Z" fill="#F5F5F5"/>
<path d="M16.3626 19.5802L16.5534 20.1525L17.1566 20.1571C17.2348 20.1578 17.2671 20.2574 17.2043 20.3038L16.719 20.6622L16.9011 21.2373C16.9247 21.3117 16.8398 21.3734 16.7763 21.3279L16.2855 20.9771L15.7948 21.3279C15.7312 21.3733 15.6466 21.3117 15.67 21.2373L15.852 20.6622L15.3668 20.3038C15.304 20.2573 15.3363 20.1578 15.4144 20.1571L16.0177 20.1525L16.2085 19.5802C16.233 19.5061 16.3379 19.5061 16.3626 19.5802Z" fill="#F5F5F5"/>
<path d="M16.3626 22.5737L16.5534 23.146L17.1566 23.1506C17.2348 23.1513 17.2671 23.2509 17.2043 23.2973L16.719 23.6557L16.9011 24.2308C16.9247 24.3052 16.8398 24.3669 16.7763 24.3214L16.2855 23.9706L15.7948 24.3214C15.7312 24.3668 15.6466 24.3052 15.67 24.2308L15.852 23.6557L15.3668 23.2973C15.304 23.2508 15.3363 23.1513 15.4144 23.1506L16.0177 23.146L16.2085 22.5737C16.233 22.4995 16.3379 22.4995 16.3626 22.5737Z" fill="#F5F5F5"/>
<path d="M18.686 12.0672L18.8769 12.6395L19.4801 12.6441C19.5582 12.6448 19.5905 12.7444 19.5277 12.7908L19.0425 13.1492L19.2245 13.7243C19.2482 13.7987 19.1633 13.8604 19.0997 13.8149L18.609 13.4641L18.1183 13.8149C18.0547 13.8603 17.97 13.7987 17.9935 13.7243L18.1755 13.1492L17.6902 12.7908C17.6275 12.7443 17.6598 12.6448 17.7379 12.6441L18.3411 12.6395L18.5319 12.0672C18.5566 11.9932 18.6614 11.9932 18.686 12.0672Z" fill="#F5F5F5"/>
<path d="M18.686 15.0607L18.8769 15.633L19.4801 15.6376C19.5582 15.6383 19.5905 15.7379 19.5277 15.7842L19.0425 16.1426L19.2245 16.7177C19.2482 16.7922 19.1633 16.8539 19.0997 16.8084L18.609 16.4576L18.1183 16.8084C18.0547 16.8538 17.97 16.7923 17.9935 16.7177L18.1755 16.1426L17.6902 15.7842C17.6275 15.7378 17.6598 15.6383 17.7379 15.6376L18.3411 15.633L18.5319 15.0607C18.5566 14.9866 18.6614 14.9866 18.686 15.0607Z" fill="#F5F5F5"/>
<path d="M18.686 18.0544L18.8769 18.6266L19.4801 18.6312C19.5582 18.6319 19.5905 18.7315 19.5277 18.7779L19.0425 19.1363L19.2245 19.7114C19.2482 19.7858 19.1633 19.8475 19.0997 19.802L18.609 19.4512L18.1183 19.802C18.0547 19.8474 17.97 19.7858 17.9935 19.7114L18.1755 19.1363L17.6902 18.7779C17.6275 18.7314 17.6598 18.6319 17.7379 18.6312L18.3411 18.6266L18.5319 18.0544C18.5566 17.9802 18.6614 17.9802 18.686 18.0544Z" fill="#F5F5F5"/>
<path d="M18.686 21.0479L18.8769 21.6202L19.4801 21.6248C19.5582 21.6255 19.5905 21.7251 19.5277 21.7715L19.0425 22.1299L19.2245 22.705C19.2482 22.7794 19.1633 22.8411 19.0997 22.7956L18.609 22.4448L18.1183 22.7956C18.0547 22.841 17.97 22.7794 17.9935 22.705L18.1755 22.1299L17.6902 21.7715C17.6275 21.725 17.6598 21.6255 17.7379 21.6248L18.3411 21.6202L18.5319 21.0479C18.5566 20.9739 18.6614 20.9739 18.686 21.0479Z" fill="#F5F5F5"/>
<path d="M21.0097 10.5995L21.2005 11.1718L21.8037 11.1764C21.8818 11.1771 21.9141 11.2767 21.8514 11.3231L21.3661 11.6815L21.5481 12.2566C21.5718 12.331 21.4869 12.3927 21.4233 12.3472L20.9326 11.9964L20.4419 12.3472C20.3783 12.3926 20.2936 12.331 20.3171 12.2566L20.4991 11.6815L20.0139 11.3231C19.9511 11.2766 19.9834 11.1771 20.0615 11.1764L20.6647 11.1718L20.8556 10.5995C20.8802 10.5254 20.9848 10.5254 21.0097 10.5995Z" fill="#F5F5F5"/>
<path d="M21.0097 13.5931L21.2005 14.1654L21.8037 14.17C21.8818 14.1707 21.9141 14.2703 21.8514 14.3166L21.3661 14.675L21.5481 15.2501C21.5718 15.3246 21.4869 15.3863 21.4233 15.3408L20.9326 14.99L20.4419 15.3408C20.3783 15.3862 20.2936 15.3246 20.3171 15.2501L20.4991 14.675L20.0139 14.3166C19.9511 14.2702 19.9834 14.1707 20.0615 14.17L20.6647 14.1654L20.8556 13.5931C20.8802 13.5191 20.9848 13.5191 21.0097 13.5931Z" fill="#F5F5F5"/>
<path d="M21.0097 16.5865L21.2005 17.1588L21.8037 17.1634C21.8818 17.1641 21.9141 17.2637 21.8514 17.3101L21.3661 17.6685L21.5481 18.2436C21.5718 18.318 21.4869 18.3797 21.4233 18.3342L20.9326 17.9834L20.4419 18.3342C20.3783 18.3796 20.2936 18.318 20.3171 18.2436L20.4991 17.6685L20.0139 17.3101C19.9511 17.2636 19.9834 17.1641 20.0615 17.1634L20.6647 17.1588L20.8556 16.5865C20.8802 16.5125 20.9848 16.5125 21.0097 16.5865Z" fill="#F5F5F5"/>
<path d="M21.0097 19.5802L21.2005 20.1525L21.8037 20.1571C21.8818 20.1578 21.9141 20.2574 21.8514 20.3038L21.3661 20.6622L21.5481 21.2373C21.5718 21.3117 21.4869 21.3734 21.4233 21.3279L20.9326 20.9771L20.4419 21.3279C20.3783 21.3733 20.2936 21.3117 20.3171 21.2373L20.4991 20.6622L20.0139 20.3038C19.9511 20.2573 19.9834 20.1578 20.0615 20.1571L20.6647 20.1525L20.8556 19.5802C20.8802 19.5061 20.9848 19.5061 21.0097 19.5802Z" fill="#F5F5F5"/>
<path d="M21.0097 22.5737L21.2005 23.146L21.8037 23.1506C21.8818 23.1513 21.9141 23.2509 21.8514 23.2973L21.3661 23.6557L21.5481 24.2308C21.5718 24.3052 21.4869 24.3669 21.4233 24.3214L20.9326 23.9706L20.4419 24.3214C20.3783 24.3668 20.2936 24.3052 20.3171 24.2308L20.4991 23.6557L20.0139 23.2973C19.9511 23.2508 19.9834 23.1513 20.0615 23.1506L20.6647 23.146L20.8556 22.5737C20.8802 22.4995 20.9848 22.4995 21.0097 22.5737Z" fill="#F5F5F5"/>
</svg>
