<svg width="50" height="50" viewBox="0 0 50 50" fill="none" xmlns="http://www.w3.org/2000/svg">
<g clip-path="url(#clip0_1702_2879)">
<path d="M49.1384 41.3792H0.862688C0.386614 41.3792 0.000579834 40.9932 0.000579834 40.5171V9.48271C0.000579834 9.00664 0.386614 8.62061 0.862688 8.62061H49.1385C49.6145 8.62061 50.0006 9.00664 50.0006 9.48271V40.5171C50.0005 40.9933 49.6144 41.3792 49.1384 41.3792Z" fill="#F5F5F5"/>
<path d="M25.0004 34.4824C30.2374 34.4824 34.4828 30.237 34.4828 25C34.4828 19.763 30.2374 15.5176 25.0004 15.5176C19.7635 15.5176 15.518 19.763 15.518 25C15.518 30.237 19.7635 34.4824 25.0004 34.4824Z" fill="#FF4B55"/>
</g>
<defs>
<clipPath id="clip0_1702_2879">
<rect width="50" height="50" fill="white"/>
</clipPath>
</defs>
</svg>
