<svg width="50" height="50" viewBox="0 0 50 50" fill="none" xmlns="http://www.w3.org/2000/svg">
<g clip-path="url(#clip0_1702_2875)">
<path d="M49.1382 41.3795H0.862474C0.386401 41.3795 0.000366211 40.9934 0.000366211 40.5174V9.48296C0.000366211 9.00688 0.386401 8.62085 0.862474 8.62085H49.1383C49.6143 8.62085 50.0004 9.00688 50.0004 9.48296V40.5174C50.0003 40.9935 49.6142 41.3795 49.1382 41.3795Z" fill="#FF4B55"/>
<path d="M8.30127 13.7437L9.12314 16.208L11.7208 16.2281C12.0571 16.2307 12.1966 16.66 11.926 16.8597L9.83633 18.4027L10.6198 20.8795C10.7212 21.2002 10.3561 21.4653 10.0825 21.2698L7.96924 19.7592L5.85596 21.2697C5.58233 21.4653 5.21729 21.2 5.31866 20.8794L6.10215 18.4026L4.01251 16.8597C3.7419 16.6599 3.88136 16.2307 4.21769 16.2281L6.81534 16.208L7.63721 13.7437C7.74365 13.4246 8.19492 13.4246 8.30127 13.7437Z" fill="#FFE15A"/>
<path d="M17.734 14.351L18.3234 15.1547L19.2744 14.8573C19.3976 14.8188 19.4989 14.9592 19.4235 15.0638L18.8412 15.8725L19.418 16.6851C19.4927 16.7903 19.3905 16.93 19.2676 16.8907L18.3185 16.5869L17.7239 17.3866C17.6469 17.4901 17.4824 17.436 17.4819 17.3071L17.4775 16.3105L16.5331 15.992C16.411 15.9507 16.4115 15.7777 16.534 15.7373L17.4803 15.4251L17.4914 14.4287C17.4928 14.2999 17.6577 14.247 17.734 14.351Z" fill="#FFE15A"/>
<path d="M14.146 11.9554L15.1367 12.063L15.5594 11.1606C15.6141 11.0438 15.786 11.0638 15.8124 11.1901L16.0161 12.1655L17.005 12.2885C17.133 12.3044 17.1671 12.4742 17.0551 12.5383L16.1903 13.0334L16.3789 14.012C16.4033 14.1387 16.2524 14.2235 16.1568 14.1369L15.4186 13.4674L14.5464 13.9491C14.4335 14.0115 14.306 13.8941 14.359 13.7764L14.7675 12.8674L14.0397 12.1866C13.9456 12.0989 14.0178 11.9416 14.146 11.9554Z" fill="#FFE15A"/>
<path d="M15.7122 21.613L15.1228 22.4167L14.1717 22.1193C14.0486 22.0808 13.9473 22.2212 14.0227 22.3258L14.6049 23.1345L14.0282 23.9471C13.9535 24.0523 14.0557 24.192 14.1786 24.1527L15.1277 23.8488L15.7223 24.6486C15.7993 24.7521 15.9638 24.698 15.9643 24.5691L15.9687 23.5725L16.913 23.254C17.0353 23.2127 17.0347 23.0397 16.9122 22.9992L15.9659 22.6871L15.9547 21.6906C15.9532 21.5619 15.7884 21.5089 15.7122 21.613Z" fill="#FFE15A"/>
<path d="M19.3001 19.3619L18.3094 19.4695L17.8868 18.5671C17.832 18.4503 17.6601 18.4703 17.6337 18.5966L17.4299 19.572L16.4411 19.695C16.313 19.7109 16.279 19.8807 16.391 19.9448L17.2557 20.4399L17.0671 21.4185C17.0427 21.5452 17.1936 21.63 17.2892 21.5434L18.0274 20.8739L18.8997 21.3556C19.0125 21.418 19.14 21.3006 19.0871 21.1829L18.6786 20.2739L19.4063 19.5931C19.5007 19.5054 19.4286 19.348 19.3001 19.3619Z" fill="#FFE15A"/>
</g>
<defs>
<clipPath id="clip0_1702_2875">
<rect width="50" height="50" fill="white"/>
</clipPath>
</defs>
</svg>
