<svg width="50" height="50" viewBox="0 0 50 50" fill="none" xmlns="http://www.w3.org/2000/svg">
<g clip-path="url(#clip0_3561_2512)">
<path d="M49.1383 41.3791H0.862657C0.386584 41.3791 0.000549316 40.993 0.000549316 40.5169V9.48253C0.000549316 9.00646 0.386584 8.62042 0.862657 8.62042H49.1384C49.6145 8.62042 50.0005 9.00646 50.0005 9.48253V40.5169C50.0005 40.9931 49.6144 41.3791 49.1383 41.3791Z" fill="#F5F5F5"/>
<path d="M38.7941 8.62088H11.2082V41.3796H38.7941V8.62088Z" fill="#F5F5F5"/>
<path d="M0.862657 8.62064C0.386584 8.62064 0.000549316 9.00657 0.000549316 9.48265V40.5171C0.000549316 40.9931 0.386584 41.3792 0.862657 41.3792H11.2075V8.62064H0.862657Z" fill="#FF4B55"/>
<path d="M49.139 8.62057H38.7942V41.3791H49.139C49.6151 41.3791 50.0011 40.9931 50.0011 40.517V9.48258C50.0011 9.00651 49.6151 8.62057 49.139 8.62057Z" fill="#FF4B55"/>
<path d="M30.2325 28.785L35.348 25.8619L34.1742 25.275C33.845 25.1104 33.6565 24.7549 33.7052 24.39L34.0872 21.5265L31.9215 22.1566C31.443 22.2958 30.9466 22.0015 30.8389 21.5151L30.6315 20.5776L28.598 22.9575C28.3161 23.2873 27.7791 23.0354 27.8526 22.6077L28.7211 17.5581L27.3915 17.9217C27.0031 18.028 26.593 17.8512 26.4036 17.4959L25.0035 14.8718V14.8679L25.0025 14.8699L25.0015 14.8679V14.8718L23.6014 17.4959C23.4118 17.8511 23.0017 18.0279 22.6133 17.9217L21.2836 17.5581L22.152 22.6077C22.2256 23.0352 21.6885 23.2872 21.4065 22.9575L19.373 20.5776L19.1656 21.5151C19.058 22.0016 18.5615 22.2957 18.0831 22.1566L15.9174 21.5265L16.2993 24.39C16.3481 24.7548 16.1596 25.1104 15.8304 25.275L14.6566 25.8619L19.7721 28.7851C20.302 29.0879 20.5342 29.7301 20.3204 30.3017L19.8831 31.4713L24.2664 31.0971C24.509 31.0764 24.7154 31.2717 24.7083 31.515L24.5702 36.2067H25.4323L25.2941 31.5148C25.287 31.2714 25.4934 31.0762 25.736 31.0969L30.1214 31.4713L29.6841 30.3017C29.4705 29.73 29.7026 29.0877 30.2325 28.785Z" fill="#FF4B55"/>
</g>
<defs>
<clipPath id="clip0_3561_2512">
<rect width="50" height="50" fill="white"/>
</clipPath>
</defs>
</svg>
