<svg width="17" height="22" viewBox="0 0 17 22" fill="none" xmlns="http://www.w3.org/2000/svg">
<g clip-path="url(#clip0_1700_2526)">
<path d="M16.1346 3.22119C16.8359 3.22119 17.5085 3.49978 18.0044 3.99567C18.5003 4.49156 18.7789 5.16413 18.7789 5.86542C18.9947 5.86545 19.2031 5.94471 19.3644 6.08817C19.5258 6.23163 19.6288 6.4293 19.6541 6.64371L19.6603 6.74683V8.50965C19.6602 8.72554 19.581 8.93391 19.4375 9.09524C19.2941 9.25657 19.0964 9.35963 18.882 9.38489L18.7789 9.39106V15.5609C18.7789 16.1629 18.4765 16.6953 18.0156 17.0126L17.8974 17.0875V17.7645C17.8973 18.104 17.7665 18.4304 17.5322 18.6762C17.2979 18.9219 16.978 19.0681 16.6389 19.0844C16.2997 19.1007 15.9673 18.9859 15.7105 18.7638C15.4537 18.5417 15.2921 18.2293 15.2594 17.8914L15.2532 17.7645V17.3238H6.43911V17.7645C6.43895 18.104 6.30816 18.4304 6.07385 18.6762C5.83954 18.9219 5.51968 19.0681 5.18054 19.0844C4.84139 19.1007 4.50897 18.9859 4.25216 18.7638C3.99534 18.5417 3.83382 18.2293 3.80105 17.8914L3.79488 17.7645V17.0875C3.54875 16.9455 3.34062 16.746 3.18822 16.5061C3.03582 16.2662 2.94368 15.9931 2.91964 15.7099L2.91347 15.5609V9.39106C2.69759 9.39104 2.48922 9.31178 2.32789 9.16832C2.16656 9.02486 2.06349 8.82718 2.03823 8.61278L2.03206 8.50965V6.74683C2.03206 6.51307 2.12493 6.28888 2.29022 6.12358C2.45552 5.95829 2.67971 5.86542 2.91347 5.86542C2.91344 5.19096 3.17113 4.54197 3.63383 4.05125C4.09654 3.56053 4.72927 3.26517 5.40258 3.2256L5.5577 3.22119H16.1346ZM17.016 12.0353H4.67629V15.5609H17.016V12.0353ZM7.32052 12.9167C7.55429 12.9167 7.77848 13.0096 7.94378 13.1749C8.10907 13.3402 8.20193 13.5644 8.20193 13.7981C8.20193 14.0319 8.10907 14.2561 7.94378 14.4214C7.77848 14.5867 7.55429 14.6795 7.32052 14.6795H6.43911C6.20535 14.6795 5.98116 14.5867 5.81586 14.4214C5.65057 14.2561 5.5577 14.0319 5.5577 13.7981C5.5577 13.5644 5.65057 13.3402 5.81586 13.1749C5.98116 13.0096 6.20535 12.9167 6.43911 12.9167H7.32052ZM15.2532 12.9167C15.4779 12.917 15.6939 13.003 15.8573 13.1572C16.0207 13.3114 16.119 13.5222 16.1321 13.7465C16.1453 13.9707 16.0723 14.1916 15.9281 14.3638C15.784 14.5361 15.5794 14.6468 15.3563 14.6734L15.2532 14.6795H14.3718C14.1472 14.6793 13.9311 14.5933 13.7677 14.439C13.6044 14.2848 13.5061 14.074 13.4929 13.8498C13.4797 13.6255 13.5527 13.4047 13.6969 13.2324C13.8411 13.0601 14.0456 12.9494 14.2687 12.9229L14.3718 12.9167H15.2532ZM8.53863 4.98401H5.5577C5.32394 4.98401 5.09975 5.07687 4.93445 5.24217C4.76916 5.40747 4.67629 5.63166 4.67629 5.86542V10.2725H17.016V5.86542C17.016 5.63166 16.9232 5.40747 16.7579 5.24217C16.5926 5.07687 16.3684 4.98401 16.1346 4.98401H14.9165L13.397 8.02223C13.3475 8.12939 13.2769 8.22552 13.1896 8.30491C13.1022 8.38429 12.9998 8.44532 12.8884 8.48438C12.777 8.52343 12.6589 8.53971 12.5411 8.53225C12.4233 8.5248 12.3082 8.49375 12.2026 8.44096C12.097 8.38817 12.0031 8.31471 11.9265 8.22495C11.8498 8.13518 11.792 8.03092 11.7564 7.91838C11.7208 7.80583 11.7082 7.68728 11.7193 7.56976C11.7304 7.45224 11.765 7.33815 11.821 7.23425L12.9457 4.98401H10.5095L8.98991 8.02223C8.8812 8.22384 8.69827 8.3752 8.47989 8.44427C8.2615 8.51333 8.0248 8.49467 7.81994 8.39224C7.61507 8.2898 7.45812 8.11164 7.38234 7.8955C7.30656 7.67935 7.3179 7.44219 7.41395 7.23425L8.53863 4.98401Z" fill="#0085FF"/>
</g>
<defs>
<clipPath id="clip0_1700_2526">
<rect width="21.1538" height="21.1538" fill="white" transform="translate(0.269241 0.576904)"/>
</clipPath>
</defs>
</svg>
