<svg width="350" height="263" viewBox="0 0 350 263" fill="none" xmlns="http://www.w3.org/2000/svg">
<rect width="350" height="263" rx="4" fill="#F2F4F7"/>
<rect x="132" y="74.5" width="86" height="86" stroke="black"/>
<path d="M161.563 157.848H140.063C138.637 157.848 137.27 157.282 136.262 156.274C135.254 155.266 134.688 153.899 134.688 152.473V82.5983C134.688 81.1728 135.254 79.8056 136.262 78.7976C137.27 77.7896 138.637 77.2233 140.063 77.2233H178.153C179.578 77.2246 180.945 77.7917 181.952 78.8L202.986 99.8342C203.536 100.392 203.962 101.061 204.234 101.796C204.506 102.532 204.618 103.316 204.563 104.098" stroke="#667085" stroke-width="1.5" stroke-linecap="round" stroke-linejoin="round"/>
<path d="M177.688 77.2233V98.7233C177.688 100.149 178.254 101.516 179.262 102.524C180.27 103.532 181.637 104.098 183.062 104.098H204.562" stroke="#667085" stroke-width="1.5" stroke-linecap="round" stroke-linejoin="round"/>
<path d="M161.276 108.972L153.5 119.148C153.264 119.454 152.966 119.707 152.627 119.892C152.288 120.077 151.914 120.19 151.529 120.223C151.147 120.243 150.765 120.183 150.407 120.048C150.049 119.912 149.724 119.703 149.451 119.435L145.438 115.278" stroke="#667085" stroke-width="1.5" stroke-linecap="round" stroke-linejoin="round"/>
<path d="M161.276 133.159L153.5 143.336C153.264 143.642 152.966 143.895 152.627 144.08C152.288 144.265 151.914 144.378 151.529 144.411C151.147 144.431 150.765 144.371 150.407 144.235C150.049 144.1 149.724 143.891 149.451 143.623L145.438 139.466" stroke="#667085" stroke-width="1.5" stroke-linecap="round" stroke-linejoin="round"/>
<path d="M172.312 120.223H185.75" stroke="#667085" stroke-width="1.5" stroke-linecap="round" stroke-linejoin="round"/>
<path d="M213.091 127.82L185.75 155.161L172.312 157.848L175 144.411L202.341 117.07C203.044 116.359 203.881 115.795 204.804 115.41C205.726 115.025 206.716 114.827 207.716 114.827C208.716 114.827 209.705 115.025 210.628 115.41C211.551 115.795 212.388 116.359 213.091 117.07C213.802 117.773 214.366 118.61 214.751 119.533C215.136 120.455 215.334 121.445 215.334 122.445C215.334 123.445 215.136 124.435 214.751 125.357C214.366 126.28 213.802 127.117 213.091 127.82Z" stroke="#667085" stroke-width="1.5" stroke-linecap="round" stroke-linejoin="round"/>
<path d="M132 74.5L212.625 155.125" stroke="#667085" stroke-width="1.5" stroke-linecap="round" stroke-linejoin="round"/>
<path d="M101.833 173.318H103.578L106.238 177.947H106.347L109.007 173.318H110.752L107.058 179.503V183.5H105.527V179.503L101.833 173.318ZM114.042 183.654C113.326 183.654 112.701 183.49 112.168 183.162C111.634 182.834 111.22 182.375 110.925 181.785C110.63 181.195 110.482 180.505 110.482 179.717C110.482 178.924 110.63 178.232 110.925 177.638C111.22 177.045 111.634 176.585 112.168 176.256C112.701 175.928 113.326 175.764 114.042 175.764C114.758 175.764 115.383 175.928 115.916 176.256C116.45 176.585 116.864 177.045 117.159 177.638C117.454 178.232 117.602 178.924 117.602 179.717C117.602 180.505 117.454 181.195 117.159 181.785C116.864 182.375 116.45 182.834 115.916 183.162C115.383 183.49 114.758 183.654 114.042 183.654ZM114.047 182.406C114.511 182.406 114.896 182.284 115.2 182.038C115.505 181.793 115.731 181.467 115.877 181.059C116.026 180.651 116.1 180.202 116.1 179.712C116.1 179.224 116.026 178.777 115.877 178.369C115.731 177.958 115.505 177.629 115.2 177.38C114.896 177.131 114.511 177.007 114.047 177.007C113.58 177.007 113.192 177.131 112.884 177.38C112.579 177.629 112.352 177.958 112.203 178.369C112.057 178.777 111.984 179.224 111.984 179.712C111.984 180.202 112.057 180.651 112.203 181.059C112.352 181.467 112.579 181.793 112.884 182.038C113.192 182.284 113.58 182.406 114.047 182.406ZM124.098 180.333V175.864H125.59V183.5H124.128V182.178H124.049C123.873 182.585 123.591 182.925 123.203 183.197C122.819 183.465 122.34 183.599 121.767 183.599C121.276 183.599 120.842 183.492 120.464 183.276C120.09 183.058 119.795 182.734 119.579 182.307C119.367 181.879 119.261 181.351 119.261 180.721V175.864H120.748V180.542C120.748 181.062 120.892 181.477 121.18 181.785C121.468 182.093 121.843 182.247 122.304 182.247C122.582 182.247 122.859 182.178 123.134 182.038C123.412 181.899 123.643 181.689 123.825 181.407C124.011 181.125 124.102 180.767 124.098 180.333ZM127.587 183.5V175.864H129.024V177.077H129.104C129.243 176.666 129.488 176.343 129.839 176.107C130.194 175.869 130.595 175.749 131.042 175.749C131.135 175.749 131.245 175.753 131.371 175.759C131.5 175.766 131.601 175.774 131.674 175.784V177.206C131.614 177.189 131.508 177.171 131.356 177.151C131.203 177.128 131.051 177.116 130.898 177.116C130.547 177.116 130.234 177.191 129.959 177.34C129.687 177.486 129.471 177.69 129.312 177.952C129.153 178.21 129.074 178.505 129.074 178.837V183.5H127.587ZM138.152 173.318V183.5H136.665V173.318H138.152ZM140.152 183.5V175.864H141.638V183.5H140.152ZM140.902 174.685C140.644 174.685 140.422 174.599 140.236 174.427C140.054 174.251 139.963 174.042 139.963 173.8C139.963 173.555 140.054 173.346 140.236 173.174C140.422 172.998 140.644 172.911 140.902 172.911C141.161 172.911 141.381 172.998 141.564 173.174C141.749 173.346 141.842 173.555 141.842 173.8C141.842 174.042 141.749 174.251 141.564 174.427C141.381 174.599 141.161 174.685 140.902 174.685ZM149.36 177.728L148.013 177.967C147.957 177.794 147.867 177.63 147.744 177.474C147.625 177.319 147.463 177.191 147.257 177.092C147.052 176.992 146.795 176.942 146.487 176.942C146.066 176.942 145.714 177.037 145.433 177.226C145.151 177.411 145.01 177.652 145.01 177.947C145.01 178.202 145.105 178.407 145.294 178.563C145.482 178.719 145.787 178.847 146.208 178.946L147.421 179.224C148.124 179.387 148.648 179.637 148.992 179.975C149.337 180.313 149.509 180.752 149.509 181.293C149.509 181.75 149.377 182.158 149.112 182.516C148.85 182.87 148.484 183.149 148.013 183.351C147.546 183.553 147.004 183.654 146.387 183.654C145.532 183.654 144.834 183.472 144.294 183.107C143.754 182.739 143.423 182.217 143.3 181.541L144.737 181.322C144.826 181.697 145.01 181.98 145.289 182.173C145.567 182.362 145.93 182.456 146.377 182.456C146.865 182.456 147.254 182.355 147.546 182.153C147.837 181.947 147.983 181.697 147.983 181.402C147.983 181.163 147.894 180.963 147.715 180.8C147.539 180.638 147.269 180.515 146.904 180.433L145.612 180.149C144.899 179.987 144.372 179.728 144.031 179.374C143.693 179.019 143.524 178.57 143.524 178.026C143.524 177.576 143.65 177.181 143.901 176.843C144.153 176.505 144.501 176.241 144.945 176.053C145.39 175.86 145.898 175.764 146.472 175.764C147.297 175.764 147.947 175.943 148.421 176.301C148.895 176.656 149.208 177.131 149.36 177.728ZM154.708 175.864V177.057H150.537V175.864H154.708ZM151.656 174.034H153.142V181.258C153.142 181.546 153.185 181.763 153.272 181.909C153.358 182.052 153.469 182.149 153.605 182.202C153.744 182.252 153.895 182.277 154.057 182.277C154.176 182.277 154.281 182.269 154.37 182.252C154.46 182.236 154.529 182.222 154.579 182.212L154.848 183.44C154.761 183.473 154.639 183.507 154.48 183.54C154.321 183.576 154.122 183.596 153.883 183.599C153.492 183.606 153.127 183.536 152.789 183.391C152.451 183.245 152.178 183.019 151.969 182.714C151.76 182.41 151.656 182.027 151.656 181.566V174.034ZM160.058 183.5V175.864H161.544V183.5H160.058ZM160.809 174.685C160.55 174.685 160.328 174.599 160.142 174.427C159.96 174.251 159.869 174.042 159.869 173.8C159.869 173.555 159.96 173.346 160.142 173.174C160.328 172.998 160.55 172.911 160.809 172.911C161.067 172.911 161.288 172.998 161.47 173.174C161.655 173.346 161.748 173.555 161.748 173.8C161.748 174.042 161.655 174.251 161.47 174.427C161.288 174.599 161.067 174.685 160.809 174.685ZM169.267 177.728L167.919 177.967C167.863 177.794 167.773 177.63 167.651 177.474C167.531 177.319 167.369 177.191 167.164 177.092C166.958 176.992 166.701 176.942 166.393 176.942C165.972 176.942 165.621 177.037 165.339 177.226C165.057 177.411 164.916 177.652 164.916 177.947C164.916 178.202 165.011 178.407 165.2 178.563C165.389 178.719 165.694 178.847 166.115 178.946L167.328 179.224C168.03 179.387 168.554 179.637 168.899 179.975C169.243 180.313 169.416 180.752 169.416 181.293C169.416 181.75 169.283 182.158 169.018 182.516C168.756 182.87 168.39 183.149 167.919 183.351C167.452 183.553 166.91 183.654 166.294 183.654C165.438 183.654 164.741 183.472 164.2 183.107C163.66 182.739 163.329 182.217 163.206 181.541L164.643 181.322C164.732 181.697 164.916 181.98 165.195 182.173C165.473 182.362 165.836 182.456 166.284 182.456C166.771 182.456 167.16 182.355 167.452 182.153C167.744 181.947 167.889 181.697 167.889 181.402C167.889 181.163 167.8 180.963 167.621 180.8C167.445 180.638 167.175 180.515 166.811 180.433L165.518 180.149C164.805 179.987 164.278 179.728 163.937 179.374C163.599 179.019 163.43 178.57 163.43 178.026C163.43 177.576 163.556 177.181 163.808 176.843C164.06 176.505 164.408 176.241 164.852 176.053C165.296 175.86 165.805 175.764 166.378 175.764C167.203 175.764 167.853 175.943 168.327 176.301C168.801 176.656 169.114 177.131 169.267 177.728ZM176.242 178.966V183.5H174.755V175.864H176.182V177.107H176.276C176.452 176.702 176.727 176.377 177.102 176.132C177.48 175.887 177.955 175.764 178.529 175.764C179.049 175.764 179.505 175.874 179.896 176.092C180.287 176.308 180.59 176.629 180.806 177.057C181.021 177.484 181.129 178.013 181.129 178.643V183.5H179.642V178.822C179.642 178.268 179.498 177.836 179.21 177.524C178.921 177.209 178.525 177.052 178.021 177.052C177.677 177.052 177.37 177.126 177.102 177.276C176.837 177.425 176.626 177.643 176.47 177.932C176.318 178.217 176.242 178.562 176.242 178.966ZM186.339 183.654C185.623 183.654 184.998 183.49 184.465 183.162C183.931 182.834 183.517 182.375 183.222 181.785C182.927 181.195 182.779 180.505 182.779 179.717C182.779 178.924 182.927 178.232 183.222 177.638C183.517 177.045 183.931 176.585 184.465 176.256C184.998 175.928 185.623 175.764 186.339 175.764C187.055 175.764 187.68 175.928 188.213 176.256C188.747 176.585 189.161 177.045 189.456 177.638C189.751 178.232 189.899 178.924 189.899 179.717C189.899 180.505 189.751 181.195 189.456 181.785C189.161 182.375 188.747 182.834 188.213 183.162C187.68 183.49 187.055 183.654 186.339 183.654ZM186.344 182.406C186.808 182.406 187.192 182.284 187.497 182.038C187.802 181.793 188.028 181.467 188.173 181.059C188.323 180.651 188.397 180.202 188.397 179.712C188.397 179.224 188.323 178.777 188.173 178.369C188.028 177.958 187.802 177.629 187.497 177.38C187.192 177.131 186.808 177.007 186.344 177.007C185.877 177.007 185.489 177.131 185.181 177.38C184.876 177.629 184.649 177.958 184.499 178.369C184.354 178.777 184.281 179.224 184.281 179.712C184.281 180.202 184.354 180.651 184.499 181.059C184.649 181.467 184.876 181.793 185.181 182.038C185.489 182.284 185.877 182.406 186.344 182.406ZM192.981 183.5L190.734 175.864H192.27L193.767 181.472H193.841L195.343 175.864H196.879L198.37 181.447H198.445L199.931 175.864H201.468L199.225 183.5H197.709L196.158 177.987H196.044L194.492 183.5H192.981ZM209.874 183.654C209.122 183.654 208.474 183.493 207.931 183.172C207.39 182.847 206.973 182.391 206.678 181.805C206.386 181.215 206.24 180.524 206.24 179.732C206.24 178.949 206.386 178.26 206.678 177.663C206.973 177.067 207.384 176.601 207.911 176.266C208.441 175.932 209.061 175.764 209.77 175.764C210.201 175.764 210.619 175.835 211.023 175.978C211.427 176.121 211.79 176.344 212.112 176.649C212.433 176.954 212.687 177.35 212.872 177.837C213.058 178.321 213.151 178.91 213.151 179.602V180.129H207.08V179.016H211.694C211.694 178.625 211.615 178.278 211.455 177.977C211.296 177.672 211.073 177.431 210.784 177.256C210.499 177.08 210.164 176.992 209.78 176.992C209.362 176.992 208.998 177.095 208.686 177.3C208.378 177.503 208.139 177.768 207.97 178.096C207.805 178.421 207.722 178.774 207.722 179.155V180.025C207.722 180.535 207.811 180.969 207.99 181.327C208.173 181.685 208.426 181.959 208.751 182.148C209.076 182.333 209.455 182.426 209.889 182.426C210.171 182.426 210.428 182.386 210.66 182.307C210.892 182.224 211.093 182.101 211.262 181.939C211.431 181.777 211.56 181.576 211.649 181.337L213.056 181.591C212.944 182.005 212.741 182.368 212.45 182.68C212.161 182.988 211.798 183.228 211.361 183.401C210.927 183.57 210.431 183.654 209.874 183.654ZM214.8 183.5V175.864H216.227V177.107H216.321C216.48 176.686 216.741 176.357 217.102 176.122C217.463 175.884 217.896 175.764 218.4 175.764C218.91 175.764 219.337 175.884 219.682 176.122C220.03 176.361 220.287 176.689 220.453 177.107H220.532C220.715 176.699 221.005 176.374 221.402 176.132C221.8 175.887 222.274 175.764 222.824 175.764C223.517 175.764 224.082 175.981 224.52 176.415C224.96 176.85 225.181 177.504 225.181 178.379V183.5H223.694V178.518C223.694 178.001 223.553 177.627 223.272 177.395C222.99 177.163 222.654 177.047 222.262 177.047C221.779 177.047 221.402 177.196 221.134 177.494C220.865 177.789 220.731 178.169 220.731 178.633V183.5H219.25V178.424C219.25 178.01 219.12 177.677 218.862 177.425C218.603 177.173 218.267 177.047 217.853 177.047C217.571 177.047 217.311 177.121 217.072 177.271C216.837 177.416 216.646 177.62 216.5 177.882C216.358 178.144 216.287 178.447 216.287 178.792V183.5H214.8ZM227.173 186.364V175.864H228.625V177.102H228.749C228.835 176.942 228.96 176.759 229.122 176.55C229.284 176.341 229.51 176.159 229.798 176.003C230.086 175.844 230.468 175.764 230.942 175.764C231.558 175.764 232.108 175.92 232.592 176.232C233.076 176.543 233.456 176.992 233.731 177.579C234.009 178.165 234.148 178.871 234.148 179.697C234.148 180.522 234.011 181.23 233.736 181.82C233.461 182.406 233.083 182.859 232.602 183.177C232.122 183.492 231.573 183.649 230.956 183.649C230.492 183.649 230.113 183.571 229.818 183.415C229.526 183.26 229.298 183.077 229.132 182.869C228.966 182.66 228.839 182.474 228.749 182.312H228.66V186.364H227.173ZM228.63 179.682C228.63 180.219 228.708 180.689 228.863 181.094C229.019 181.498 229.245 181.815 229.54 182.043C229.835 182.269 230.196 182.381 230.623 182.381C231.068 182.381 231.439 182.264 231.737 182.028C232.035 181.79 232.261 181.467 232.413 181.059C232.569 180.651 232.647 180.192 232.647 179.682C232.647 179.178 232.571 178.726 232.418 178.325C232.269 177.924 232.044 177.607 231.742 177.375C231.444 177.143 231.071 177.027 230.623 177.027C230.193 177.027 229.828 177.138 229.53 177.36C229.235 177.582 229.011 177.892 228.858 178.29C228.706 178.687 228.63 179.152 228.63 179.682ZM239.378 175.864V177.057H235.207V175.864H239.378ZM236.326 174.034H237.812V181.258C237.812 181.546 237.855 181.763 237.942 181.909C238.028 182.052 238.139 182.149 238.275 182.202C238.414 182.252 238.565 182.277 238.727 182.277C238.846 182.277 238.951 182.269 239.04 182.252C239.13 182.236 239.199 182.222 239.249 182.212L239.518 183.44C239.431 183.473 239.309 183.507 239.15 183.54C238.991 183.576 238.792 183.596 238.553 183.599C238.162 183.606 237.797 183.536 237.459 183.391C237.121 183.245 236.848 183.019 236.639 182.714C236.43 182.41 236.326 182.027 236.326 181.566V174.034ZM241.962 186.364C241.74 186.364 241.538 186.345 241.356 186.309C241.174 186.276 241.038 186.239 240.948 186.2L241.306 184.982C241.578 185.054 241.82 185.086 242.032 185.076C242.244 185.066 242.431 184.987 242.594 184.837C242.759 184.688 242.905 184.445 243.031 184.107L243.215 183.599L240.421 175.864H242.012L243.946 181.79H244.026L245.96 175.864H247.555L244.408 184.519C244.263 184.917 244.077 185.253 243.852 185.528C243.626 185.807 243.358 186.016 243.046 186.155C242.735 186.294 242.373 186.364 241.962 186.364Z" fill="#667085"/>
</svg>
