<svg width="22" height="22" viewBox="0 0 22 22" fill="none" xmlns="http://www.w3.org/2000/svg">
<path d="M1.80128 3.22119H5.973C8.27348 3.22119 9.4246 3.22119 10.499 3.57464C11.5735 3.92808 12.499 4.61206 14.3508 5.97912L17.6032 8.38185L17.6737 8.43473C18.2249 8.8498 18.6709 9.3885 18.9759 10.0074C19.2809 10.6264 19.4362 11.3083 19.4295 11.9983V12.0626C19.4225 12.5206 19.2375 12.9578 18.9137 13.2817C18.5899 13.6056 18.1528 13.7908 17.6949 13.7981H1.80128" stroke="#0085FF" stroke-width="1.5" stroke-linecap="round" stroke-linejoin="round"/>
<path d="M1.80128 7.6283H3.46979C3.70778 7.6283 3.82677 7.6283 3.93959 7.63535C4.41704 7.6661 4.88324 7.7937 5.3098 8.01039C5.73635 8.22708 6.11435 8.52832 6.42076 8.89577C6.49303 8.98215 6.56354 9.07734 6.70281 9.26949C6.9711 9.60338 7.10865 10.0235 7.08975 10.4515V10.6392C7.09063 10.7899 7.09063 10.8657 7.06771 10.9265C7.05002 10.9731 7.02265 11.0155 6.9874 11.0507C6.95215 11.086 6.90983 11.1133 6.86322 11.131C6.80153 11.1539 6.72572 11.1539 6.575 11.1539H1.80128M18.5481 10.2725H15.3159C12.7202 10.2725 10.6154 8.29906 10.6154 5.86548V4.10266M1.80128 17.3238H19.4295M15.9038 17.3238V19.0866M10.6154 17.3238V19.0866M5.32693 17.3238V19.0866" stroke="#0085FF" stroke-width="1.5" stroke-linecap="round" stroke-linejoin="round"/>
</svg>
