<svg width="22" height="22" viewBox="0 0 22 22" fill="none" xmlns="http://www.w3.org/2000/svg">
<g clip-path="url(#clip0_1700_2533)">
<path d="M2.41667 19.0865C2.94552 19.5272 3.47436 19.9679 4.6202 19.9679C6.82372 19.9679 6.82372 18.2051 9.02725 18.2051C10.1731 18.2051 10.7019 18.6458 11.2308 19.0865C11.7596 19.5272 12.2885 19.9679 13.4343 19.9679C15.6378 19.9679 15.6378 18.2051 17.8414 18.2051C18.9872 18.2051 19.516 18.6458 20.0449 19.0865" stroke="#0085FF" stroke-width="2" stroke-linecap="round" stroke-linejoin="round"/>
<path d="M17.7356 18.2051C18.6837 16.605 19.1774 14.7765 19.1635 12.9166L11.2308 9.39099L3.29808 12.9166C3.29808 15.4727 4.12661 17.6234 5.77484 19.7564" stroke="#0085FF" stroke-width="2" stroke-linecap="round" stroke-linejoin="round"/>
<path d="M17.4006 12.0352V6.74677C17.4006 6.27924 17.2149 5.83086 16.8843 5.50027C16.5537 5.16968 16.1054 4.98395 15.6378 4.98395H6.82373C6.3562 4.98395 5.90782 5.16968 5.57722 5.50027C5.24663 5.83086 5.06091 6.27924 5.06091 6.74677V12.0352M11.2308 9.391V12.9166M11.2308 2.33972V4.98395" stroke="#0085FF" stroke-width="2" stroke-linecap="round" stroke-linejoin="round"/>
</g>
<defs>
<clipPath id="clip0_1700_2533">
<rect width="21.1538" height="21.1538" fill="white" transform="translate(0.653854 0.576904)"/>
</clipPath>
</defs>
</svg>
