<svg width="18" height="16" viewBox="0 0 18 16" fill="none" xmlns="http://www.w3.org/2000/svg">
<path d="M14.1026 0C14.8039 0 15.4764 0.278588 15.9723 0.774477C16.4682 1.27037 16.7468 1.94294 16.7468 2.64423C16.9627 2.64426 17.171 2.72352 17.3324 2.86698C17.4937 3.01043 17.5968 3.20811 17.622 3.42252L17.6282 3.52564V5.28846C17.6282 5.50435 17.5489 5.71272 17.4055 5.87405C17.262 6.03538 17.0643 6.13844 16.8499 6.1637L16.7468 6.16987V12.3397C16.7468 12.9417 16.4445 13.4741 15.9835 13.7914L15.8654 13.8663V14.5433C15.8652 14.8828 15.7344 15.2093 15.5001 15.455C15.2658 15.7007 14.9459 15.8469 14.6068 15.8632C14.2677 15.8795 13.9352 15.7647 13.6784 15.5426C13.4216 15.3205 13.2601 15.0081 13.2273 14.6702L13.2212 14.5433V14.1026H4.40705V14.5433C4.40688 14.8828 4.27609 15.2093 4.04179 15.455C3.80748 15.7007 3.48761 15.8469 3.14847 15.8632C2.80933 15.8795 2.47691 15.7647 2.22009 15.5426C1.96328 15.3205 1.80175 15.0081 1.76899 14.6702L1.76282 14.5433V13.8663C1.51669 13.7243 1.30855 13.5248 1.15616 13.2849C1.00376 13.045 0.911615 12.7719 0.88758 12.4887L0.88141 12.3397V6.16987C0.665524 6.16984 0.457155 6.09058 0.295826 5.94713C0.134497 5.80367 0.0314286 5.60599 0.00616984 5.39159L0 5.28846V3.52564C0 3.29188 0.0928626 3.06769 0.258159 2.90239C0.423456 2.73709 0.647646 2.64423 0.88141 2.64423C0.881373 1.96977 1.13907 1.32078 1.60177 0.830059C2.06448 0.339337 2.69721 0.0439757 3.37051 0.00440715L3.52564 0H14.1026ZM14.984 8.8141H2.64423V12.3397H14.984V8.8141ZM5.28846 9.69551C5.52223 9.69551 5.74642 9.78838 5.91171 9.95367C6.07701 10.119 6.16987 10.3432 6.16987 10.5769C6.16987 10.8107 6.07701 11.0349 5.91171 11.2002C5.74642 11.3655 5.52223 11.4583 5.28846 11.4583H4.40705C4.17329 11.4583 3.9491 11.3655 3.7838 11.2002C3.6185 11.0349 3.52564 10.8107 3.52564 10.5769C3.52564 10.3432 3.6185 10.119 3.7838 9.95367C3.9491 9.78838 4.17329 9.69551 4.40705 9.69551H5.28846ZM13.2212 9.69551C13.4458 9.69576 13.6619 9.78179 13.8252 9.936C13.9886 10.0902 14.0869 10.301 14.1001 10.5253C14.1132 10.7495 14.0403 10.9704 13.8961 11.1426C13.7519 11.3149 13.5474 11.4256 13.3243 11.4522L13.2212 11.4583H12.3397C12.1151 11.4581 11.899 11.3721 11.7357 11.2178C11.5723 11.0636 11.474 10.8528 11.4608 10.6286C11.4477 10.4043 11.5206 10.1835 11.6648 10.0112C11.809 9.83893 12.0135 9.72822 12.2366 9.70168L12.3397 9.69551H13.2212ZM6.50657 1.76282H3.52564C3.29188 1.76282 3.06769 1.85568 2.90239 2.02098C2.73709 2.18628 2.64423 2.41047 2.64423 2.64423V7.05128H14.984V2.64423C14.984 2.41047 14.8911 2.18628 14.7258 2.02098C14.5605 1.85568 14.3363 1.76282 14.1026 1.76282H12.8845L11.3649 4.80104C11.3154 4.9082 11.2449 5.00433 11.1575 5.08371C11.0702 5.1631 10.9677 5.22413 10.8564 5.26319C10.745 5.30224 10.6269 5.31852 10.5091 5.31106C10.3912 5.30361 10.2761 5.27256 10.1706 5.21977C10.065 5.16698 9.97108 5.09352 9.89443 5.00375C9.81779 4.91398 9.75995 4.80973 9.72435 4.69719C9.68876 4.58464 9.67614 4.46609 9.68723 4.34857C9.69833 4.23105 9.73291 4.11696 9.78894 4.01306L10.9136 1.76282H8.4774L6.95785 4.80104C6.84914 5.00265 6.66621 5.15401 6.44782 5.22308C6.22944 5.29214 5.99274 5.27348 5.78787 5.17105C5.58301 5.06861 5.42606 4.89045 5.35028 4.6743C5.2745 4.45816 5.28584 4.221 5.38189 4.01306L6.50657 1.76282Z" fill="#0085FF"/>
</svg>
