<svg width="22" height="22" viewBox="0 0 22 22" fill="none" xmlns="http://www.w3.org/2000/svg">
<path d="M19.8141 19.0866H2.18588V17.3238H3.06729V4.1026C3.06729 3.86884 3.16016 3.64465 3.32545 3.47935C3.49075 3.31405 3.71494 3.22119 3.9487 3.22119H16.2884C16.5222 3.22119 16.7464 3.31405 16.9117 3.47935C17.077 3.64465 17.1699 3.86884 17.1699 4.1026V8.50965H18.9327V17.3238H19.8141V19.0866ZM15.407 17.3238H17.1699V10.2725H11.8814V17.3238H13.6442V12.0353H15.407V17.3238ZM15.407 8.50965V4.98401H4.83011V17.3238H10.1186V8.50965H15.407ZM6.59293 10.2725H8.35575V12.0353H6.59293V10.2725ZM6.59293 13.7981H8.35575V15.5609H6.59293V13.7981ZM6.59293 6.74683H8.35575V8.50965H6.59293V6.74683Z" fill="#0085FF"/>
</svg>
