<svg width="155" height="30" viewBox="0 0 155 30" fill="none" xmlns="http://www.w3.org/2000/svg">
<path d="M4.46 24.78C3.12 24.78 2.17 24.4 1.61 23.64C1.07 22.86 0.8 21.69 0.8 20.13C0.8 19.13 0.96 17.63 1.28 15.63C1.62 13.61 2.09 10.94 2.69 7.62L1.1 4.41C2.04 3.81 3.04 3.3 4.1 2.88C5.16 2.44 6.22 2.22 7.28 2.22C7.82 2.22 8.39 2.32 8.99 2.52C9.61 2.72 10.05 2.93 10.31 3.15C11.07 2.85 11.79 2.63 12.47 2.49C13.17 2.35 13.82 2.28 14.42 2.28C15.74 2.28 16.85 2.6 17.75 3.24C18.65 3.86 19.33 4.68 19.79 5.7C20.27 6.72 20.51 7.82 20.51 9C20.51 10.04 20.31 11.09 19.91 12.15C19.51 13.19 18.9 14.14 18.08 15C17.26 15.86 16.22 16.55 14.96 17.07C13.7 17.59 12.21 17.85 10.49 17.85C9.99 17.85 9.48 17.82 8.96 17.76C8.46 17.68 7.96 17.57 7.46 17.43C7.34 18.15 7.28 18.7 7.28 19.08C7.28 20.1 7.35 20.96 7.49 21.66C7.65 22.36 7.88 22.95 8.18 23.43C6.98 24.33 5.74 24.78 4.46 24.78ZM8.9 14.1C9.72 14.1 10.5 13.9 11.24 13.5C12 13.08 12.62 12.52 13.1 11.82C13.58 11.12 13.82 10.32 13.82 9.42C13.82 8.56 13.57 7.8 13.07 7.14C12.57 6.46 11.81 6.12 10.79 6.12C10.39 6.12 9.93 6.2 9.41 6.36C9.33 6.96 9.21 7.7 9.05 8.58C8.91 9.44 8.75 10.34 8.57 11.28C8.41 12.22 8.23 13.13 8.03 14.01C8.31 14.07 8.6 14.1 8.9 14.1ZM27.3139 24.75C26.1939 24.75 25.2039 24.46 24.3439 23.88C23.5039 23.3 22.8539 22.48 22.3939 21.42C21.9339 20.36 21.7039 19.12 21.7039 17.7C21.7039 16.04 21.9939 14.5 22.5739 13.08C23.1739 11.66 23.9939 10.42 25.0339 9.36C26.0939 8.3 27.3339 7.48 28.7539 6.9C30.1739 6.3 31.7139 6 33.3739 6C33.8539 6 34.2639 6.02 34.6039 6.06C34.9639 6.08 35.3439 6.14 35.7439 6.24C35.8639 6.8 35.9339 7.29 35.9539 7.71C36.4139 7.41 36.9239 7.18 37.4839 7.02C38.0439 6.84 38.5639 6.75 39.0439 6.75C40.5039 6.75 41.2339 7.54 41.2339 9.12C41.2339 9.64 41.1339 10.35 40.9339 11.25C40.7539 12.13 40.5339 13.11 40.2739 14.19C40.0339 15.25 39.8139 16.34 39.6139 17.46C39.4339 18.56 39.3439 19.59 39.3439 20.55C39.3439 21.85 39.6539 22.76 40.2739 23.28C39.1539 24.26 37.9639 24.75 36.7039 24.75C35.5439 24.75 34.6839 24.39 34.1239 23.67C33.5839 22.95 33.3139 21.83 33.3139 20.31L33.0139 20.16C32.4739 21.6 31.6939 22.73 30.6739 23.55C29.6739 24.35 28.5539 24.75 27.3139 24.75ZM29.6839 19.29C30.4639 19.29 31.2239 19.01 31.9639 18.45C32.7039 17.89 33.3239 17.12 33.8239 16.14C33.9039 15.36 33.9839 14.63 34.0639 13.95C34.1639 13.25 34.2839 12.51 34.4239 11.73C34.5839 10.95 34.7739 10.03 34.9939 8.97C33.9739 8.97 33.0039 9.17 32.0839 9.57C31.1839 9.95 30.3739 10.48 29.6539 11.16C28.9339 11.84 28.3639 12.62 27.9439 13.5C27.5439 14.36 27.3439 15.27 27.3439 16.23C27.3439 17.21 27.5439 17.97 27.9439 18.51C28.3639 19.03 28.9439 19.29 29.6839 19.29ZM49.4038 24.75C48.1238 24.75 47.2138 24.37 46.6738 23.61C46.1338 22.85 45.8638 21.69 45.8638 20.13C45.8638 19.69 45.9138 19.07 46.0138 18.27C46.1138 17.45 46.2438 16.54 46.4038 15.54C46.5838 14.54 46.7538 13.55 46.9138 12.57C46.4938 12.65 46.0838 12.74 45.6838 12.84C45.3038 12.94 44.9438 13.05 44.6038 13.17C44.5238 12.87 44.4638 12.57 44.4238 12.27C44.4038 11.97 44.3938 11.75 44.3938 11.61C44.3938 10.57 44.6938 9.82 45.2938 9.36C45.9138 8.88 46.6538 8.64 47.5138 8.64C47.5138 8.18 47.4538 7.67 47.3338 7.11C47.2138 6.55 47.0038 5.93 46.7038 5.25C47.5438 4.63 48.3838 4.11 49.2238 3.69C50.0638 3.27 50.9938 3.06 52.0138 3.06C52.8938 3.06 53.5038 3.23 53.8438 3.57C54.1838 3.89 54.3538 4.43 54.3538 5.19C54.3538 5.57 54.3138 6.02 54.2338 6.54C54.1538 7.06 54.0538 7.63 53.9338 8.25C54.3738 8.19 54.7938 8.12 55.1938 8.04C55.5938 7.94 55.9838 7.84 56.3638 7.74C56.4438 7.96 56.4938 8.19 56.5138 8.43C56.5538 8.65 56.5738 8.87 56.5738 9.09C56.5738 9.89 56.3238 10.59 55.8238 11.19C55.3438 11.77 54.5938 12.06 53.5738 12.06H53.1238C52.8438 13.34 52.5938 14.65 52.3738 15.99C52.1538 17.33 52.0438 18.58 52.0438 19.74C52.0438 20.52 52.1138 21.22 52.2538 21.84C52.4138 22.44 52.6538 22.92 52.9738 23.28C51.8538 24.26 50.6638 24.75 49.4038 24.75ZM62.4713 24.75C61.2113 24.75 60.3113 24.43 59.7713 23.79C59.2313 23.15 58.9613 22.23 58.9613 21.03C58.9613 20.43 59.0113 19.65 59.1113 18.69C59.2313 17.73 59.3813 16.67 59.5613 15.51C59.7413 14.33 59.9413 13.13 60.1613 11.91C60.3813 10.67 60.5913 9.49 60.7913 8.37C60.9913 7.23 61.1713 6.22 61.3313 5.34L59.6513 2.94C60.7113 2.32 61.7213 1.8 62.6813 1.38C63.6413 0.959999 64.6013 0.749999 65.5613 0.749999C66.4013 0.749999 66.9813 0.919999 67.3013 1.26C67.6413 1.58 67.8113 2.12 67.8113 2.88C67.8113 3.7 67.7613 4.55 67.6613 5.43C67.5813 6.29 67.4713 7.12 67.3313 7.92C67.1913 8.72 67.0513 9.42 66.9113 10.02C66.7913 10.62 66.6913 11.06 66.6113 11.34L66.9113 11.49C68.0913 9.47 69.3813 8.05 70.7813 7.23C72.1813 6.41 73.6113 6 75.0713 6C76.2913 6 77.2013 6.3 77.8013 6.9C78.4013 7.48 78.7013 8.39 78.7013 9.63C78.7013 10.71 78.5513 11.86 78.2513 13.08C77.9713 14.28 77.6813 15.52 77.3813 16.8C77.0813 18.06 76.9313 19.31 76.9313 20.55C76.9313 21.79 77.1413 22.7 77.5613 23.28C76.5013 24.26 75.4013 24.75 74.2613 24.75C73.0013 24.75 72.1013 24.43 71.5613 23.79C71.0213 23.15 70.7513 22.23 70.7513 21.03C70.7513 20.37 70.8413 19.64 71.0213 18.84C71.2013 18.02 71.4113 17.19 71.6513 16.35C71.8913 15.51 72.1013 14.72 72.2813 13.98C72.4613 13.24 72.5513 12.6 72.5513 12.06C72.5513 11.64 72.4713 11.31 72.3113 11.07C72.1713 10.83 71.9113 10.71 71.5313 10.71C70.9913 10.71 70.3613 10.95 69.6413 11.43C68.9213 11.91 68.2113 12.59 67.5113 13.47C66.8313 14.33 66.2613 15.36 65.8013 16.56C65.3613 17.76 65.1413 19.09 65.1413 20.55C65.1413 21.79 65.3513 22.7 65.7713 23.28C64.7113 24.26 63.6113 24.75 62.4713 24.75ZM85.0145 29.97C83.7345 29.97 82.8645 29.65 82.4045 29.01C81.9445 28.37 81.7145 27.45 81.7145 26.25C81.7145 25.81 81.7645 25.13 81.8645 24.21C81.9645 23.29 82.0845 22.24 82.2245 21.06C82.3845 19.86 82.5645 18.62 82.7645 17.34C82.9645 16.06 83.1545 14.83 83.3345 13.65C83.5345 12.47 83.7145 11.44 83.8745 10.56L82.1945 8.16C83.2545 7.54 84.2545 7.02 85.1945 6.6C86.1545 6.18 87.1145 5.97 88.0745 5.97C88.9145 5.97 89.4845 6.26 89.7845 6.84C90.0845 7.4 90.2345 8.06 90.2345 8.82C90.2345 9.04 90.2245 9.29 90.2045 9.57C90.1845 9.83 90.1545 10.11 90.1145 10.41L90.4145 10.56C90.9945 9.12 91.8345 8 92.9345 7.2C94.0345 6.38 95.2945 5.97 96.7145 5.97C97.7945 5.97 98.7045 6.3 99.4445 6.96C100.184 7.6 100.744 8.45 101.124 9.51C101.504 10.57 101.694 11.74 101.694 13.02C101.694 14.26 101.454 15.53 100.974 16.83C100.514 18.11 99.8045 19.29 98.8445 20.37C97.8845 21.45 96.6745 22.32 95.2145 22.98C93.7545 23.64 92.0245 23.97 90.0245 23.97C89.6445 23.97 89.2745 23.96 88.9145 23.94C88.5545 23.9 88.1645 23.86 87.7445 23.82C87.6845 24.5 87.6545 25.15 87.6545 25.77C87.6545 26.37 87.7245 26.9 87.8645 27.36C88.0245 27.84 88.2645 28.22 88.5845 28.5C87.4645 29.48 86.2745 29.97 85.0145 29.97ZM88.2845 21.03C89.5845 20.99 90.7245 20.75 91.7045 20.31C92.7045 19.85 93.5445 19.26 94.2245 18.54C94.9045 17.8 95.4145 17 95.7545 16.14C96.0945 15.28 96.2645 14.44 96.2645 13.62C96.2645 12.7 96.0845 11.95 95.7245 11.37C95.3645 10.79 94.8245 10.5 94.1045 10.5C93.3645 10.5 92.6645 10.73 92.0045 11.19C91.3645 11.63 90.7845 12.36 90.2645 13.38C89.7645 14.4 89.3345 15.79 88.9745 17.55L88.2845 21.03ZM112.873 24.75C111.113 24.75 109.593 24.42 108.313 23.76C107.053 23.08 106.083 22.15 105.403 20.97C104.723 19.79 104.383 18.42 104.383 16.86C104.383 14.7 104.853 12.81 105.793 11.19C106.753 9.55 108.063 8.28 109.723 7.38C111.383 6.46 113.273 6 115.393 6C115.733 6 116.073 6.02 116.413 6.06C116.773 6.08 117.153 6.14 117.553 6.24C117.653 6.52 117.733 6.86 117.793 7.26C117.853 7.64 117.893 8.05 117.913 8.49C118.093 8.43 118.283 8.38 118.483 8.34C118.703 8.3 118.933 8.28 119.173 8.28C119.873 8.28 120.533 8.47 121.153 8.85C121.773 9.21 122.283 9.78 122.683 10.56C123.083 11.34 123.283 12.33 123.283 13.53C123.283 15.31 122.983 16.9 122.383 18.3C121.803 19.68 121.013 20.85 120.013 21.81C119.013 22.77 117.893 23.5 116.653 24C115.433 24.5 114.173 24.75 112.873 24.75ZM113.803 21.06C114.263 21.06 114.743 20.95 115.243 20.73C115.743 20.51 116.233 20.11 116.713 19.53C117.193 18.95 117.593 18.13 117.913 17.07C117.053 16.53 116.433 15.87 116.053 15.09C115.673 14.29 115.483 13.41 115.483 12.45C115.483 12.17 115.533 11.81 115.633 11.37C115.733 10.93 115.903 10.48 116.143 10.02C116.403 9.56 116.753 9.18 117.193 8.88C115.813 9.16 114.683 9.58 113.803 10.14C112.923 10.7 112.233 11.35 111.733 12.09C111.253 12.81 110.913 13.56 110.713 14.34C110.533 15.1 110.443 15.83 110.443 16.53C110.443 17.33 110.573 18.08 110.833 18.78C111.093 19.46 111.473 20.01 111.973 20.43C112.473 20.85 113.083 21.06 113.803 21.06ZM129.519 24.75C128.299 24.75 127.429 24.43 126.909 23.79C126.389 23.15 126.129 22.23 126.129 21.03C126.129 20.61 126.189 19.97 126.309 19.11C126.429 18.23 126.579 17.26 126.759 16.2C126.959 15.12 127.169 14.04 127.389 12.96C127.609 11.88 127.819 10.92 128.019 10.08L126.459 7.68C127.499 7.22 128.459 6.83 129.339 6.51C130.239 6.17 131.039 6 131.739 6C132.259 6 132.639 6.18 132.879 6.54C133.119 6.9 133.239 7.36 133.239 7.92C133.239 8.56 133.129 9.28 132.909 10.08C132.689 10.86 132.469 11.6 132.249 12.3L132.549 12.45C133.249 10.39 134.039 8.8 134.919 7.68C135.819 6.56 136.819 6 137.919 6C138.639 6 139.219 6.16 139.659 6.48C140.099 6.78 140.419 7.16 140.619 7.62C140.839 8.06 140.949 8.49 140.949 8.91C140.949 9.57 140.779 10.21 140.439 10.83C140.119 11.43 139.599 11.93 138.879 12.33C138.159 12.71 137.209 12.9 136.029 12.9C135.569 12.9 135.119 13 134.679 13.2C134.239 13.4 133.839 13.78 133.479 14.34C133.119 14.88 132.829 15.65 132.609 16.65C132.409 17.65 132.309 18.95 132.309 20.55C132.309 21.79 132.519 22.7 132.939 23.28C131.699 24.26 130.559 24.75 129.519 24.75ZM147.167 24.75C145.887 24.75 144.977 24.37 144.437 23.61C143.897 22.85 143.627 21.69 143.627 20.13C143.627 19.69 143.677 19.07 143.777 18.27C143.877 17.45 144.007 16.54 144.167 15.54C144.347 14.54 144.517 13.55 144.677 12.57C144.257 12.65 143.847 12.74 143.447 12.84C143.067 12.94 142.707 13.05 142.367 13.17C142.287 12.87 142.227 12.57 142.187 12.27C142.167 11.97 142.157 11.75 142.157 11.61C142.157 10.57 142.457 9.82 143.057 9.36C143.677 8.88 144.417 8.64 145.277 8.64C145.277 8.18 145.217 7.67 145.097 7.11C144.977 6.55 144.767 5.93 144.467 5.25C145.307 4.63 146.147 4.11 146.987 3.69C147.827 3.27 148.757 3.06 149.777 3.06C150.657 3.06 151.267 3.23 151.607 3.57C151.947 3.89 152.117 4.43 152.117 5.19C152.117 5.57 152.077 6.02 151.997 6.54C151.917 7.06 151.817 7.63 151.697 8.25C152.137 8.19 152.557 8.12 152.957 8.04C153.357 7.94 153.747 7.84 154.127 7.74C154.207 7.96 154.257 8.19 154.277 8.43C154.317 8.65 154.337 8.87 154.337 9.09C154.337 9.89 154.087 10.59 153.587 11.19C153.107 11.77 152.357 12.06 151.337 12.06H150.887C150.607 13.34 150.357 14.65 150.137 15.99C149.917 17.33 149.807 18.58 149.807 19.74C149.807 20.52 149.877 21.22 150.017 21.84C150.177 22.44 150.417 22.92 150.737 23.28C149.617 24.26 148.427 24.75 147.167 24.75Z" fill="white"/>
</svg>
