<svg width="360" height="42" viewBox="0 0 360 42" fill="none" xmlns="http://www.w3.org/2000/svg">
<rect x="0.5" y="0.5" width="359" height="41" rx="7.5" stroke="#1E2432" stroke-opacity="0.23"/>
<rect width="360" height="40" transform="translate(0 1)" fill="#FEE500"/>
<g clip-path="url(#clip0_1524_3681)">
<path fill-rule="evenodd" clip-rule="evenodd" d="M33.6923 9.45636C27.5097 9.45636 22 13.734 22 19.0105C22 22.2912 24.1313 25.1849 27.3764 26.9053L26.0109 31.9172C25.8899 32.361 26.3945 32.7138 26.7815 32.4567L32.7672 28.4875C33.2718 28.536 33.7853 28.5647 33.6923 28.5647C41.105 28.5647 46 24.2864 46 19.0105C46 13.734 41.105 9.45636 33.6923 9.45636Z" fill="black"/>
</g>
<path d="M61.3828 21.125C61.3828 20.8594 61.3411 20.625 61.2578 20.4219C61.1797 20.2135 61.0391 20.026 60.8359 19.8594C60.638 19.6927 60.362 19.5339 60.0078 19.3828C59.6589 19.2318 59.2161 19.0781 58.6797 18.9219C58.1172 18.7552 57.6094 18.5703 57.1562 18.3672C56.7031 18.1589 56.3151 17.9219 55.9922 17.6562C55.6693 17.3906 55.4219 17.0859 55.25 16.7422C55.0781 16.3984 54.9922 16.0052 54.9922 15.5625C54.9922 15.1198 55.0833 14.7109 55.2656 14.3359C55.4479 13.9609 55.7083 13.6354 56.0469 13.3594C56.3906 13.0781 56.7995 12.8594 57.2734 12.7031C57.7474 12.5469 58.276 12.4688 58.8594 12.4688C59.7135 12.4688 60.4375 12.6328 61.0312 12.9609C61.6302 13.2839 62.0859 13.7083 62.3984 14.2344C62.7109 14.7552 62.8672 15.3125 62.8672 15.9062H61.3672C61.3672 15.4792 61.276 15.1016 61.0938 14.7734C60.9115 14.4401 60.6354 14.1797 60.2656 13.9922C59.8958 13.7995 59.4271 13.7031 58.8594 13.7031C58.3229 13.7031 57.8802 13.7839 57.5312 13.9453C57.1823 14.1068 56.9219 14.3255 56.75 14.6016C56.5833 14.8776 56.5 15.1927 56.5 15.5469C56.5 15.7865 56.5495 16.0052 56.6484 16.2031C56.7526 16.3958 56.9115 16.5755 57.125 16.7422C57.3438 16.9089 57.6198 17.0625 57.9531 17.2031C58.2917 17.3438 58.6953 17.4792 59.1641 17.6094C59.8099 17.7917 60.3672 17.9948 60.8359 18.2188C61.3047 18.4427 61.6901 18.6953 61.9922 18.9766C62.2995 19.2526 62.526 19.5677 62.6719 19.9219C62.8229 20.2708 62.8984 20.6667 62.8984 21.1094C62.8984 21.5729 62.8047 21.9922 62.6172 22.3672C62.4297 22.7422 62.1615 23.0625 61.8125 23.3281C61.4635 23.5938 61.0443 23.7995 60.5547 23.9453C60.0703 24.0859 59.5286 24.1562 58.9297 24.1562C58.4036 24.1562 57.8854 24.0833 57.375 23.9375C56.8698 23.7917 56.4089 23.5729 55.9922 23.2812C55.5807 22.9896 55.25 22.6302 55 22.2031C54.7552 21.7708 54.6328 21.2708 54.6328 20.7031H56.1328C56.1328 21.0938 56.2083 21.4297 56.3594 21.7109C56.5104 21.987 56.7161 22.2161 56.9766 22.3984C57.2422 22.5807 57.5417 22.7161 57.875 22.8047C58.2135 22.888 58.5651 22.9297 58.9297 22.9297C59.4557 22.9297 59.901 22.8568 60.2656 22.7109C60.6302 22.5651 60.9062 22.3568 61.0938 22.0859C61.2865 21.8151 61.3828 21.4948 61.3828 21.125ZM66.1719 15.5469V24H64.7188V15.5469H66.1719ZM64.6094 13.3047C64.6094 13.0703 64.6797 12.8724 64.8203 12.7109C64.9661 12.5495 65.1797 12.4688 65.4609 12.4688C65.737 12.4688 65.9479 12.5495 66.0938 12.7109C66.2448 12.8724 66.3203 13.0703 66.3203 13.3047C66.3203 13.5286 66.2448 13.7214 66.0938 13.8828C65.9479 14.0391 65.737 14.1172 65.4609 14.1172C65.1797 14.1172 64.9661 14.0391 64.8203 13.8828C64.6797 13.7214 64.6094 13.5286 64.6094 13.3047ZM73.9688 15.5469H75.2812V23.8203C75.2812 24.5651 75.1302 25.2005 74.8281 25.7266C74.526 26.2526 74.1042 26.651 73.5625 26.9219C73.026 27.1979 72.4062 27.3359 71.7031 27.3359C71.4115 27.3359 71.0677 27.2891 70.6719 27.1953C70.2812 27.1068 69.8958 26.9531 69.5156 26.7344C69.1406 26.5208 68.8255 26.2318 68.5703 25.8672L69.3281 25.0078C69.6823 25.4349 70.0521 25.7318 70.4375 25.8984C70.8281 26.0651 71.2135 26.1484 71.5938 26.1484C72.0521 26.1484 72.4479 26.0625 72.7812 25.8906C73.1146 25.7188 73.3724 25.4635 73.5547 25.125C73.7422 24.7917 73.8359 24.3802 73.8359 23.8906V17.4062L73.9688 15.5469ZM68.1484 19.8672V19.7031C68.1484 19.0573 68.224 18.4714 68.375 17.9453C68.5312 17.4141 68.7526 16.9583 69.0391 16.5781C69.3307 16.1979 69.6823 15.9062 70.0938 15.7031C70.5052 15.4948 70.9688 15.3906 71.4844 15.3906C72.0156 15.3906 72.4792 15.4844 72.875 15.6719C73.276 15.8542 73.6146 16.1224 73.8906 16.4766C74.1719 16.8255 74.3932 17.2474 74.5547 17.7422C74.7161 18.237 74.8281 18.7969 74.8906 19.4219V20.1406C74.8333 20.7604 74.7214 21.3177 74.5547 21.8125C74.3932 22.3073 74.1719 22.7292 73.8906 23.0781C73.6146 23.4271 73.276 23.6953 72.875 23.8828C72.474 24.0651 72.0052 24.1562 71.4688 24.1562C70.9635 24.1562 70.5052 24.0495 70.0938 23.8359C69.6875 23.6224 69.3385 23.3229 69.0469 22.9375C68.7552 22.5521 68.5312 22.099 68.375 21.5781C68.224 21.0521 68.1484 20.4818 68.1484 19.8672ZM69.5938 19.7031V19.8672C69.5938 20.2891 69.6354 20.6849 69.7188 21.0547C69.8073 21.4245 69.9401 21.75 70.1172 22.0312C70.2995 22.3125 70.5312 22.5339 70.8125 22.6953C71.0938 22.8516 71.4297 22.9297 71.8203 22.9297C72.2995 22.9297 72.6953 22.8281 73.0078 22.625C73.3203 22.4219 73.5677 22.1536 73.75 21.8203C73.9375 21.487 74.0833 21.125 74.1875 20.7344V18.8516C74.1302 18.5651 74.0417 18.2891 73.9219 18.0234C73.8073 17.7526 73.6562 17.513 73.4688 17.3047C73.2865 17.0911 73.0599 16.9219 72.7891 16.7969C72.5182 16.6719 72.2005 16.6094 71.8359 16.6094C71.4401 16.6094 71.099 16.6927 70.8125 16.8594C70.5312 17.0208 70.2995 17.2448 70.1172 17.5312C69.9401 17.8125 69.8073 18.1406 69.7188 18.5156C69.6354 18.8854 69.5938 19.2812 69.5938 19.7031ZM78.9219 17.3516V24H77.4766V15.5469H78.8438L78.9219 17.3516ZM78.5781 19.4531L77.9766 19.4297C77.9818 18.8516 78.0677 18.3177 78.2344 17.8281C78.401 17.3333 78.6354 16.9036 78.9375 16.5391C79.2396 16.1745 79.599 15.8932 80.0156 15.6953C80.4375 15.4922 80.9036 15.3906 81.4141 15.3906C81.8307 15.3906 82.2057 15.4479 82.5391 15.5625C82.8724 15.6719 83.1562 15.849 83.3906 16.0938C83.6302 16.3385 83.8125 16.6562 83.9375 17.0469C84.0625 17.4323 84.125 17.9036 84.125 18.4609V24H82.6719V18.4453C82.6719 18.0026 82.6068 17.6484 82.4766 17.3828C82.3464 17.112 82.1562 16.9167 81.9062 16.7969C81.6562 16.6719 81.349 16.6094 80.9844 16.6094C80.625 16.6094 80.2969 16.6849 80 16.8359C79.7083 16.987 79.4557 17.1953 79.2422 17.4609C79.0339 17.7266 78.8698 18.0312 78.75 18.375C78.6354 18.7135 78.5781 19.0729 78.5781 19.4531ZM91.8594 15.5469V24H90.4062V15.5469H91.8594ZM90.2969 13.3047C90.2969 13.0703 90.3672 12.8724 90.5078 12.7109C90.6536 12.5495 90.8672 12.4688 91.1484 12.4688C91.4245 12.4688 91.6354 12.5495 91.7812 12.7109C91.9323 12.8724 92.0078 13.0703 92.0078 13.3047C92.0078 13.5286 91.9323 13.7214 91.7812 13.8828C91.6354 14.0391 91.4245 14.1172 91.1484 14.1172C90.8672 14.1172 90.6536 14.0391 90.5078 13.8828C90.3672 13.7214 90.2969 13.5286 90.2969 13.3047ZM95.625 17.3516V24H94.1797V15.5469H95.5469L95.625 17.3516ZM95.2812 19.4531L94.6797 19.4297C94.6849 18.8516 94.7708 18.3177 94.9375 17.8281C95.1042 17.3333 95.3385 16.9036 95.6406 16.5391C95.9427 16.1745 96.3021 15.8932 96.7188 15.6953C97.1406 15.4922 97.6068 15.3906 98.1172 15.3906C98.5339 15.3906 98.9089 15.4479 99.2422 15.5625C99.5755 15.6719 99.8594 15.849 100.094 16.0938C100.333 16.3385 100.516 16.6562 100.641 17.0469C100.766 17.4323 100.828 17.9036 100.828 18.4609V24H99.375V18.4453C99.375 18.0026 99.3099 17.6484 99.1797 17.3828C99.0495 17.112 98.8594 16.9167 98.6094 16.7969C98.3594 16.6719 98.0521 16.6094 97.6875 16.6094C97.3281 16.6094 97 16.6849 96.7031 16.8359C96.4115 16.987 96.1589 17.1953 95.9453 17.4609C95.737 17.7266 95.5729 18.0312 95.4531 18.375C95.3385 18.7135 95.2812 19.0729 95.2812 19.4531ZM109.133 22.5L111.305 15.5469H112.258L112.07 16.9297L109.859 24H108.93L109.133 22.5ZM107.672 15.5469L109.523 22.5781L109.656 24H108.68L106.227 15.5469H107.672ZM114.336 22.5234L116.102 15.5469H117.539L115.086 24H114.117L114.336 22.5234ZM112.469 15.5469L114.594 22.3828L114.836 24H113.914L111.641 16.9141L111.453 15.5469H112.469ZM120.594 15.5469V24H119.141V15.5469H120.594ZM119.031 13.3047C119.031 13.0703 119.102 12.8724 119.242 12.7109C119.388 12.5495 119.602 12.4688 119.883 12.4688C120.159 12.4688 120.37 12.5495 120.516 12.7109C120.667 12.8724 120.742 13.0703 120.742 13.3047C120.742 13.5286 120.667 13.7214 120.516 13.8828C120.37 14.0391 120.159 14.1172 119.883 14.1172C119.602 14.1172 119.388 14.0391 119.242 13.8828C119.102 13.7214 119.031 13.5286 119.031 13.3047ZM126.453 15.5469V16.6562H121.883V15.5469H126.453ZM123.43 13.4922H124.875V21.9062C124.875 22.1927 124.919 22.4089 125.008 22.5547C125.096 22.7005 125.211 22.7969 125.352 22.8438C125.492 22.8906 125.643 22.9141 125.805 22.9141C125.924 22.9141 126.049 22.9036 126.18 22.8828C126.315 22.8568 126.417 22.8359 126.484 22.8203L126.492 24C126.378 24.0365 126.227 24.0703 126.039 24.1016C125.857 24.138 125.635 24.1562 125.375 24.1562C125.021 24.1562 124.695 24.0859 124.398 23.9453C124.102 23.8047 123.865 23.5703 123.688 23.2422C123.516 22.9089 123.43 22.4609 123.43 21.8984V13.4922ZM129.594 12V24H128.148V12H129.594ZM129.25 19.4531L128.648 19.4297C128.654 18.8516 128.74 18.3177 128.906 17.8281C129.073 17.3333 129.307 16.9036 129.609 16.5391C129.911 16.1745 130.271 15.8932 130.688 15.6953C131.109 15.4922 131.576 15.3906 132.086 15.3906C132.503 15.3906 132.878 15.4479 133.211 15.5625C133.544 15.6719 133.828 15.849 134.062 16.0938C134.302 16.3385 134.484 16.6562 134.609 17.0469C134.734 17.4323 134.797 17.9036 134.797 18.4609V24H133.344V18.4453C133.344 18.0026 133.279 17.6484 133.148 17.3828C133.018 17.112 132.828 16.9167 132.578 16.7969C132.328 16.6719 132.021 16.6094 131.656 16.6094C131.297 16.6094 130.969 16.6849 130.672 16.8359C130.38 16.987 130.128 17.1953 129.914 17.4609C129.706 17.7266 129.542 18.0312 129.422 18.375C129.307 18.7135 129.25 19.0729 129.25 19.4531ZM142.656 12.625V24H141.148V12.625H142.656ZM149.523 12.625L144.797 17.9297L142.141 20.6875L141.891 19.0781L143.891 16.875L147.711 12.625H149.523ZM148.07 24L143.859 18.4531L144.758 17.2578L149.867 24H148.07ZM155.961 22.5547V18.2031C155.961 17.8698 155.893 17.5807 155.758 17.3359C155.628 17.0859 155.43 16.8932 155.164 16.7578C154.898 16.6224 154.57 16.5547 154.18 16.5547C153.815 16.5547 153.495 16.6172 153.219 16.7422C152.948 16.8672 152.734 17.0312 152.578 17.2344C152.427 17.4375 152.352 17.6562 152.352 17.8906H150.906C150.906 17.5885 150.984 17.2891 151.141 16.9922C151.297 16.6953 151.521 16.4271 151.812 16.1875C152.109 15.9427 152.464 15.75 152.875 15.6094C153.292 15.4635 153.755 15.3906 154.266 15.3906C154.88 15.3906 155.422 15.4948 155.891 15.7031C156.365 15.9115 156.734 16.2266 157 16.6484C157.271 17.0651 157.406 17.5885 157.406 18.2188V22.1562C157.406 22.4375 157.43 22.737 157.477 23.0547C157.529 23.3724 157.604 23.6458 157.703 23.875V24H156.195C156.122 23.8333 156.065 23.612 156.023 23.3359C155.982 23.0547 155.961 22.7943 155.961 22.5547ZM156.211 18.875L156.227 19.8906H154.766C154.354 19.8906 153.987 19.9245 153.664 19.9922C153.341 20.0547 153.07 20.151 152.852 20.2812C152.633 20.4115 152.466 20.5755 152.352 20.7734C152.237 20.9661 152.18 21.1927 152.18 21.4531C152.18 21.7188 152.24 21.9609 152.359 22.1797C152.479 22.3984 152.659 22.5729 152.898 22.7031C153.143 22.8281 153.443 22.8906 153.797 22.8906C154.24 22.8906 154.63 22.7969 154.969 22.6094C155.307 22.4219 155.576 22.1927 155.773 21.9219C155.977 21.651 156.086 21.388 156.102 21.1328L156.719 21.8281C156.682 22.0469 156.583 22.2891 156.422 22.5547C156.26 22.8203 156.044 23.0755 155.773 23.3203C155.508 23.5599 155.19 23.7604 154.82 23.9219C154.456 24.0781 154.044 24.1562 153.586 24.1562C153.013 24.1562 152.51 24.0443 152.078 23.8203C151.651 23.5964 151.318 23.2969 151.078 22.9219C150.844 22.5417 150.727 22.1172 150.727 21.6484C150.727 21.1953 150.815 20.7969 150.992 20.4531C151.169 20.1042 151.424 19.8151 151.758 19.5859C152.091 19.3516 152.492 19.1745 152.961 19.0547C153.43 18.9349 153.953 18.875 154.531 18.875H156.211ZM161.133 12V24H159.68V12H161.133ZM166.297 15.5469L162.609 19.4922L160.547 21.6328L160.43 20.0938L161.906 18.3281L164.531 15.5469H166.297ZM164.977 24L161.961 19.9688L162.711 18.6797L166.68 24H164.977ZM172.773 22.5547V18.2031C172.773 17.8698 172.706 17.5807 172.57 17.3359C172.44 17.0859 172.242 16.8932 171.977 16.7578C171.711 16.6224 171.383 16.5547 170.992 16.5547C170.628 16.5547 170.307 16.6172 170.031 16.7422C169.76 16.8672 169.547 17.0312 169.391 17.2344C169.24 17.4375 169.164 17.6562 169.164 17.8906H167.719C167.719 17.5885 167.797 17.2891 167.953 16.9922C168.109 16.6953 168.333 16.4271 168.625 16.1875C168.922 15.9427 169.276 15.75 169.688 15.6094C170.104 15.4635 170.568 15.3906 171.078 15.3906C171.693 15.3906 172.234 15.4948 172.703 15.7031C173.177 15.9115 173.547 16.2266 173.812 16.6484C174.083 17.0651 174.219 17.5885 174.219 18.2188V22.1562C174.219 22.4375 174.242 22.737 174.289 23.0547C174.341 23.3724 174.417 23.6458 174.516 23.875V24H173.008C172.935 23.8333 172.878 23.612 172.836 23.3359C172.794 23.0547 172.773 22.7943 172.773 22.5547ZM173.023 18.875L173.039 19.8906H171.578C171.167 19.8906 170.799 19.9245 170.477 19.9922C170.154 20.0547 169.883 20.151 169.664 20.2812C169.445 20.4115 169.279 20.5755 169.164 20.7734C169.049 20.9661 168.992 21.1927 168.992 21.4531C168.992 21.7188 169.052 21.9609 169.172 22.1797C169.292 22.3984 169.471 22.5729 169.711 22.7031C169.956 22.8281 170.255 22.8906 170.609 22.8906C171.052 22.8906 171.443 22.7969 171.781 22.6094C172.12 22.4219 172.388 22.1927 172.586 21.9219C172.789 21.651 172.898 21.388 172.914 21.1328L173.531 21.8281C173.495 22.0469 173.396 22.2891 173.234 22.5547C173.073 22.8203 172.857 23.0755 172.586 23.3203C172.32 23.5599 172.003 23.7604 171.633 23.9219C171.268 24.0781 170.857 24.1562 170.398 24.1562C169.826 24.1562 169.323 24.0443 168.891 23.8203C168.464 23.5964 168.13 23.2969 167.891 22.9219C167.656 22.5417 167.539 22.1172 167.539 21.6484C167.539 21.1953 167.628 20.7969 167.805 20.4531C167.982 20.1042 168.237 19.8151 168.57 19.5859C168.904 19.3516 169.305 19.1745 169.773 19.0547C170.242 18.9349 170.766 18.875 171.344 18.875H173.023ZM176.109 19.8672V19.6875C176.109 19.0781 176.198 18.513 176.375 17.9922C176.552 17.4661 176.807 17.0104 177.141 16.625C177.474 16.2344 177.878 15.9323 178.352 15.7188C178.826 15.5 179.357 15.3906 179.945 15.3906C180.539 15.3906 181.073 15.5 181.547 15.7188C182.026 15.9323 182.432 16.2344 182.766 16.625C183.104 17.0104 183.362 17.4661 183.539 17.9922C183.716 18.513 183.805 19.0781 183.805 19.6875V19.8672C183.805 20.4766 183.716 21.0417 183.539 21.5625C183.362 22.0833 183.104 22.5391 182.766 22.9297C182.432 23.3151 182.029 23.6172 181.555 23.8359C181.086 24.0495 180.555 24.1562 179.961 24.1562C179.367 24.1562 178.833 24.0495 178.359 23.8359C177.885 23.6172 177.479 23.3151 177.141 22.9297C176.807 22.5391 176.552 22.0833 176.375 21.5625C176.198 21.0417 176.109 20.4766 176.109 19.8672ZM177.555 19.6875V19.8672C177.555 20.2891 177.604 20.6875 177.703 21.0625C177.802 21.4323 177.951 21.7604 178.148 22.0469C178.352 22.3333 178.604 22.5599 178.906 22.7266C179.208 22.888 179.56 22.9688 179.961 22.9688C180.357 22.9688 180.703 22.888 181 22.7266C181.302 22.5599 181.552 22.3333 181.75 22.0469C181.948 21.7604 182.096 21.4323 182.195 21.0625C182.299 20.6875 182.352 20.2891 182.352 19.8672V19.6875C182.352 19.2708 182.299 18.8776 182.195 18.5078C182.096 18.1328 181.945 17.8021 181.742 17.5156C181.544 17.224 181.294 16.9948 180.992 16.8281C180.695 16.6615 180.346 16.5781 179.945 16.5781C179.549 16.5781 179.201 16.6615 178.898 16.8281C178.602 16.9948 178.352 17.224 178.148 17.5156C177.951 17.8021 177.802 18.1328 177.703 18.5078C177.604 18.8776 177.555 19.2708 177.555 19.6875Z" fill="black" fill-opacity="0.85"/>
<defs>
<clipPath id="clip0_1524_3681">
<rect width="24" height="24" fill="white" transform="translate(22 9)"/>
</clipPath>
</defs>
</svg>
